<svg xmlns="http://www.w3.org/2000/svg" viewBox="0 0 1600 900" width="1600" height="900" role="img"><defs>
  <linearGradient id="sky7" x1="0" y1="0" x2="0" y2="1">
    <stop offset="0%" stop-color="#0C1226"/><stop offset="58%" stop-color="#16203D"/><stop offset="100%" stop-color="#2A3A5E"/>
  </linearGradient>
  <radialGradient id="warm7">
    <stop offset="0%" stop-color="#F4B03C" stop-opacity="0.55"/>
    <stop offset="45%" stop-color="#F4B03C" stop-opacity="0.21"/>
    <stop offset="100%" stop-color="#F4B03C" stop-opacity="0"/>
  </radialGradient>
  <linearGradient id="glass7" x1="0" y1="0" x2="0" y2="1">
    <stop offset="0%" stop-color="#FFE6A8"/><stop offset="100%" stop-color="#F4B03C"/>
  </linearGradient>
  <radialGradient id="vig7">
    <stop offset="55%" stop-color="#000000" stop-opacity="0"/>
    <stop offset="100%" stop-color="#000814" stop-opacity="0.55"/>
  </radialGradient>
  <filter id="soft7" x="-120%" y="-120%" width="340%" height="340%">
    <feGaussianBlur stdDeviation="7"/>
  </filter>
  <filter id="grain7" x="0" y="0" width="100%" height="100%">
    <feTurbulence type="fractalNoise" baseFrequency="0.9" numOctaves="3" seed="7"/>
    <feColorMatrix type="saturate" values="0"/>
  </filter>
  
</defs><rect width="1600" height="900" fill="url(#sky7)"/><circle cx="1179.7" cy="192.1" r="1.7" fill="#FFFFFF" opacity="0.7"/><circle cx="400.4" cy="258.2" r="1.3" fill="#FFFFFF" opacity="0.3"/><circle cx="484.5" cy="210.4" r="0.9" fill="#FFFFFF" opacity="0.4"/><circle cx="1241.5" cy="28.5" r="2.0" fill="#FFFFFF" opacity="0.3"/><circle cx="989.0" cy="236.6" r="0.9" fill="#FFFFFF" opacity="0.4"/><circle cx="552.4" cy="95.9" r="0.9" fill="#FFFFFF" opacity="0.6"/><circle cx="1097.4" cy="345.7" r="2.1" fill="#FFFFFF" opacity="0.6"/><circle cx="348.5" cy="220.0" r="2.2" fill="#FFFFFF" opacity="0.9"/><circle cx="540.8" cy="317.5" r="2.1" fill="#FFFFFF" opacity="0.3"/><circle cx="656.6" cy="292.9" r="2.1" fill="#FFFFFF" opacity="0.5"/><circle cx="696.4" cy="289.1" r="1.2" fill="#FFFFFF" opacity="0.7"/><circle cx="133.9" cy="16.4" r="1.5" fill="#FFFFFF" opacity="0.7"/><circle cx="706.1" cy="218.6" r="1.7" fill="#FFFFFF" opacity="0.7"/><circle cx="486.7" cy="52.8" r="1.1" fill="#FFFFFF" opacity="0.5"/><circle cx="595.0" cy="61.8" r="1.3" fill="#FFFFFF" opacity="0.5"/><circle cx="288.7" cy="87.3" r="2.0" fill="#FFFFFF" opacity="0.9"/><circle cx="190.6" cy="281.3" r="1.8" fill="#FFFFFF" opacity="0.7"/><circle cx="600.5" cy="264.2" r="1.5" fill="#FFFFFF" opacity="0.3"/><circle cx="241.1" cy="28.3" r="1.7" fill="#FFFFFF" opacity="0.9"/><circle cx="1587.9" cy="294.0" r="1.4" fill="#FFFFFF" opacity="0.7"/><circle cx="934.3" cy="216.7" r="2.0" fill="#FFFFFF" opacity="0.5"/><circle cx="1340.5" cy="34.1" r="1.5" fill="#FFFFFF" opacity="0.7"/><circle cx="1016.7" cy="89.6" r="1.8" fill="#FFFFFF" opacity="0.8"/><circle cx="91.0" cy="21.9" r="1.1" fill="#FFFFFF" opacity="0.6"/><circle cx="711.6" cy="198.4" r="1.2" fill="#FFFFFF" opacity="0.8"/><circle cx="233.4" cy="59.8" r="2.0" fill="#FFFFFF" opacity="0.6"/><circle cx="438.5" cy="14.9" r="1.5" fill="#FFFFFF" opacity="0.8"/><circle cx="541.9" cy="33.4" r="1.1" fill="#FFFFFF" opacity="0.7"/><circle cx="131.2" cy="54.9" r="1.3" fill="#FFFFFF" opacity="0.8"/><circle cx="590.1" cy="301.8" r="1.0" fill="#FFFFFF" opacity="0.3"/><circle cx="757.3" cy="155.0" r="1.6" fill="#FFFFFF" opacity="0.6"/><circle cx="969.0" cy="140.2" r="1.6" fill="#FFFFFF" opacity="0.5"/><circle cx="36.2" cy="362.0" r="1.8" fill="#FFFFFF" opacity="0.7"/><circle cx="906.3" cy="315.8" r="1.7" fill="#FFFFFF" opacity="0.3"/><circle cx="1558.5" cy="254.0" r="1.6" fill="#FFFFFF" opacity="0.9"/><circle cx="1284.8" cy="295.4" r="1.1" fill="#FFFFFF" opacity="0.3"/><circle cx="504.2" cy="115.3" r="2.0" fill="#FFFFFF" opacity="0.3"/><circle cx="261.6" cy="345.8" r="1.0" fill="#FFFFFF" opacity="0.3"/><circle cx="361.7" cy="162.3" r="1.6" fill="#FFFFFF" opacity="0.5"/><circle cx="686.4" cy="166.7" r="0.9" fill="#FFFFFF" opacity="0.6"/><circle cx="1446.9" cy="103.1" r="1.3" fill="#FFFFFF" opacity="0.8"/><circle cx="520.4" cy="136.2" r="2.2" fill="#FFFFFF" opacity="0.4"/><circle cx="1221.1" cy="168.9" r="1.5" fill="#FFFFFF" opacity="0.5"/><circle cx="1455.1" cy="228.4" r="1.4" fill="#FFFFFF" opacity="0.3"/><circle cx="10.6" cy="198.3" r="1.1" fill="#FFFFFF" opacity="0.4"/><circle cx="531.2" cy="24.3" r="1.9" fill="#FFFFFF" opacity="0.8"/><circle cx="925.0" cy="193.8" r="1.4" fill="#FFFFFF" opacity="0.6"/><circle cx="1556.8" cy="194.2" r="1.4" fill="#FFFFFF" opacity="0.3"/><circle cx="775.9" cy="71.2" r="1.5" fill="#FFFFFF" opacity="0.4"/><circle cx="1527.0" cy="133.2" r="1.6" fill="#FFFFFF" opacity="0.7"/><circle cx="796.2" cy="120.8" r="0.8" fill="#FFFFFF" opacity="0.5"/><circle cx="41.6" cy="109.3" r="1.2" fill="#FFFFFF" opacity="0.6"/><circle cx="357.9" cy="282.1" r="1.3" fill="#FFFFFF" opacity="0.8"/><circle cx="1325.0" cy="323.6" r="1.0" fill="#FFFFFF" opacity="0.5"/><circle cx="891.9" cy="129.8" r="2.1" fill="#FFFFFF" opacity="0.4"/><circle cx="844.0" cy="303.4" r="2.1" fill="#FFFFFF" opacity="0.8"/><circle cx="805.9" cy="333.6" r="1.8" fill="#FFFFFF" opacity="0.7"/><circle cx="1327.1" cy="147.1" r="1.8" fill="#FFFFFF" opacity="0.7"/><circle cx="603.7" cy="269.3" r="0.9" fill="#FFFFFF" opacity="0.4"/><circle cx="582.9" cy="202.8" r="2.1" fill="#FFFFFF" opacity="0.8"/><circle cx="603.6" cy="143.3" r="1.2" fill="#FFFFFF" opacity="0.5"/><circle cx="719.3" cy="318.1" r="2.1" fill="#FFFFFF" opacity="0.3"/><circle cx="857.4" cy="28.9" r="0.9" fill="#FFFFFF" opacity="0.3"/><circle cx="361.6" cy="183.3" r="1.4" fill="#FFFFFF" opacity="0.9"/><circle cx="69.1" cy="376.0" r="1.5" fill="#FFFFFF" opacity="0.6"/><circle cx="272.0" cy="6.5" r="1.4" fill="#FFFFFF" opacity="0.4"/><circle cx="1513.5" cy="192.0" r="1.6" fill="#FFFFFF" opacity="0.7"/><circle cx="1567.7" cy="2.1" r="0.9" fill="#FFFFFF" opacity="0.5"/><circle cx="355.0" cy="116.5" r="1.0" fill="#FFFFFF" opacity="0.7"/><circle cx="1340.1" cy="210.3" r="1.1" fill="#FFFFFF" opacity="0.6"/><circle cx="366.5" cy="127.8" r="1.9" fill="#FFFFFF" opacity="0.7"/><circle cx="73.3" cy="270.9" r="1.5" fill="#FFFFFF" opacity="0.7"/><circle cx="848.0" cy="242.0" r="1.5" fill="#FFFFFF" opacity="0.4"/><circle cx="62.9" cy="288.0" r="1.0" fill="#FFFFFF" opacity="0.8"/><circle cx="145.5" cy="24.5" r="1.7" fill="#FFFFFF" opacity="0.7"/><circle cx="1234.7" cy="128.1" r="2.1" fill="#FFFFFF" opacity="0.4"/><circle cx="1369.5" cy="334.5" r="1.0" fill="#FFFFFF" opacity="0.8"/><circle cx="763.8" cy="190.9" r="2.1" fill="#FFFFFF" opacity="0.7"/><circle cx="1114.0" cy="81.2" r="1.1" fill="#FFFFFF" opacity="0.5"/><circle cx="1292.7" cy="231.4" r="1.0" fill="#FFFFFF" opacity="0.3"/><rect x="38.0" y="555.5" width="11.7" height="56.0" fill="#1B2542" opacity="0.7"/><polygon points="-22.6,564.6 47.7,477.1 105.7,564.3" fill="#1B2542" opacity="0.7"/><polygon points="-9.7,507.9 42.5,419.3 94.2,506.9" fill="#1B2542" opacity="0.7"/><polygon points="6.4,448.7 45.6,361.5 84.5,451.0" fill="#1B2542" opacity="0.7"/><polygon points="18.6,394.2 41.2,303.7 65.2,392.2" fill="#1B2542" opacity="0.7"/><rect x="152.2" y="560.6" width="9.8" height="50.3" fill="#1B2542" opacity="0.7"/><polygon points="100.0,569.6 154.8,490.2 211.5,571.9" fill="#1B2542" opacity="0.7"/><polygon points="113.4,518.3 159.2,438.3 202.4,518.6" fill="#1B2542" opacity="0.7"/><polygon points="128.3,465.8 156.3,386.3 185.3,468.7" fill="#1B2542" opacity="0.7"/><polygon points="141.5,415.7 160.1,334.3 179.7,413.6" fill="#1B2542" opacity="0.7"/><rect x="335.5" y="547.2" width="13.7" height="68.5" fill="#1B2542" opacity="0.7"/><polygon points="268.1,563.6 344.4,451.3 423.3,563.4" fill="#1B2542" opacity="0.7"/><polygon points="283.2,487.8 340.8,380.6 403.9,491.5" fill="#1B2542" opacity="0.7"/><polygon points="301.9,418.3 338.7,309.9 391.0,416.7" fill="#1B2542" opacity="0.7"/><polygon points="320.1,346.3 341.0,239.1 368.5,351.5" fill="#1B2542" opacity="0.7"/><rect x="424.9" y="541.7" width="18.5" height="77.8" fill="#1B2542" opacity="0.7"/><polygon points="337.0,556.2 437.3,432.8 545.1,558.4" fill="#1B2542" opacity="0.7"/><polygon points="362.0,473.9 434.8,352.5 513.2,475.2" fill="#1B2542" opacity="0.7"/><polygon points="374.5,397.5 434.1,272.1 491.9,394.5" fill="#1B2542" opacity="0.7"/><polygon points="403.2,317.2 428.2,191.8 471.9,316.4" fill="#1B2542" opacity="0.7"/><rect x="639.2" y="559.6" width="11.6" height="51.2" fill="#1B2542" opacity="0.7"/><polygon points="581.7,567.6 643.9,487.8 712.6,568.3" fill="#1B2542" opacity="0.7"/><polygon points="594.6,516.3 648.3,434.9 692.2,518.7" fill="#1B2542" opacity="0.7"/><polygon points="607.5,462.1 643.3,382.0 675.9,463.8" fill="#1B2542" opacity="0.7"/><polygon points="620.1,412.5 645.4,329.0 667.9,410.8" fill="#1B2542" opacity="0.7"/><rect x="798.1" y="563.7" width="8.9" height="44.6" fill="#1B2542" opacity="0.7"/><polygon points="750.7,571.2 802.7,501.3 855.1,571.3" fill="#1B2542" opacity="0.7"/><polygon points="765.8,528.4 803.8,455.2 842.0,524.7" fill="#1B2542" opacity="0.7"/><polygon points="776.5,479.0 803.1,409.1 831.3,479.2" fill="#1B2542" opacity="0.7"/><polygon points="783.7,436.0 805.0,363.0 815.9,433.7" fill="#1B2542" opacity="0.7"/><rect x="936.6" y="552.1" width="12.1" height="58.0" fill="#1B2542" opacity="0.7"/><polygon points="875.5,561.5 940.1,470.9 1005.1,565.2" fill="#1B2542" opacity="0.7"/><polygon points="894.3,502.6 944.6,411.0 995.6,501.3" fill="#1B2542" opacity="0.7"/><polygon points="903.4,445.4 943.0,351.1 977.9,444.3" fill="#1B2542" opacity="0.7"/><polygon points="924.7,382.4 943.1,291.3 967.3,386.3" fill="#1B2542" opacity="0.7"/><rect x="1058.8" y="555.4" width="14.9" height="60.2" fill="#1B2542" opacity="0.7"/><polygon points="988.5,570.6 1068.3,471.0 1154.0,564.5" fill="#1B2542" opacity="0.7"/><polygon points="1001.2,505.7 1063.6,408.8 1125.4,503.4" fill="#1B2542" opacity="0.7"/><polygon points="1019.4,444.8 1065.2,346.6 1114.4,442.4" fill="#1B2542" opacity="0.7"/><polygon points="1040.9,380.4 1068.1,284.3 1097.8,380.5" fill="#1B2542" opacity="0.7"/><rect x="1261.4" y="561.9" width="10.4" height="50.3" fill="#1B2542" opacity="0.7"/><polygon points="1208.3,573.9 1269.1,491.4 1328.0,574.1" fill="#1B2542" opacity="0.7"/><polygon points="1224.3,522.0 1265.8,439.4 1315.9,519.8" fill="#1B2542" opacity="0.7"/><polygon points="1236.6,469.0 1269.0,387.4 1300.9,470.1" fill="#1B2542" opacity="0.7"/><polygon points="1247.6,417.9 1264.8,335.3 1285.8,416.8" fill="#1B2542" opacity="0.7"/><rect x="1451.4" y="544.6" width="16.2" height="71.2" fill="#1B2542" opacity="0.7"/><polygon points="1372.0,562.0 1464.8,444.9 1554.1,556.3" fill="#1B2542" opacity="0.7"/><polygon points="1390.6,486.5 1463.5,371.3 1523.3,484.8" fill="#1B2542" opacity="0.7"/><polygon points="1410.2,412.0 1464.1,297.8 1510.6,411.6" fill="#1B2542" opacity="0.7"/><polygon points="1425.1,340.2 1462.5,224.2 1486.0,339.9" fill="#1B2542" opacity="0.7"/><rect x="1587.2" y="559.6" width="9.9" height="50.4" fill="#1B2542" opacity="0.7"/><polygon points="1535.6,569.0 1593.3,489.1 1648.1,571.2" fill="#1B2542" opacity="0.7"/><polygon points="1546.1,518.7 1590.1,437.0 1637.5,518.5" fill="#1B2542" opacity="0.7"/><polygon points="1565.0,465.2 1589.3,384.9 1623.6,463.6" fill="#1B2542" opacity="0.7"/><polygon points="1570.7,414.6 1590.7,332.9 1612.3,415.5" fill="#1B2542" opacity="0.7"/><rect x="103.4" y="630.9" width="14.8" height="70.3" fill="#141C33" opacity="1.0"/><polygon points="33.2,643.3 113.1,532.4 190.8,644.8" fill="#141C33" opacity="1.0"/><polygon points="69.7,597.7 112.1,538.0 151.9,597.7" fill="#3C4E74" opacity="0.75"/><polygon points="42.7,574.9 108.4,459.7 179.1,571.1" fill="#141C33" opacity="1.0"/><polygon points="78.7,525.0 108.1,465.3 142.8,525.0" fill="#3C4E74" opacity="0.75"/><polygon points="67.1,496.4 113.2,387.0 155.4,497.6" fill="#141C33" opacity="1.0"/><polygon points="87.7,452.3 112.6,392.7 133.8,452.3" fill="#3C4E74" opacity="0.75"/><polygon points="88.3,427.5 107.0,314.4 132.6,426.4" fill="#141C33" opacity="1.0"/><polygon points="96.8,379.6 112.9,320.0 124.7,379.6" fill="#3C4E74" opacity="0.75"/><rect x="179.3" y="621.3" width="17.0" height="87.4" fill="#141C33" opacity="1.0"/><polygon points="89.9,637.6 185.4,498.9 285.9,638.7" fill="#141C33" opacity="1.0"/><polygon points="140.6,580.0 185.5,505.9 234.9,580.0" fill="#3C4E74" opacity="0.75"/><polygon points="115.0,549.9 182.6,408.6 254.7,546.5" fill="#141C33" opacity="1.0"/><polygon points="151.0,489.7 185.3,415.6 224.5,489.7" fill="#3C4E74" opacity="0.75"/><polygon points="138.3,460.5 183.3,318.3 238.1,460.2" fill="#141C33" opacity="1.0"/><polygon points="161.3,399.4 185.7,325.3 214.2,399.4" fill="#3C4E74" opacity="0.75"/><polygon points="158.0,367.1 184.0,228.0 227.2,364.5" fill="#141C33" opacity="1.0"/><polygon points="171.7,309.1 187.1,235.0 203.8,309.1" fill="#3C4E74" opacity="0.75"/><rect x="468.1" y="640.5" width="14.3" height="61.8" fill="#141C33" opacity="1.0"/><polygon points="391.8,655.2 474.2,554.0 554.4,653.7" fill="#141C33" opacity="1.0"/><polygon points="435.6,611.3 478.0,558.9 514.9,611.3" fill="#3C4E74" opacity="0.75"/><polygon points="415.4,590.7 478.8,490.2 542.6,588.8" fill="#141C33" opacity="1.0"/><polygon points="444.3,547.5 476.7,495.1 506.1,547.5" fill="#3C4E74" opacity="0.75"/><polygon points="426.6,527.4 478.4,426.3 518.5,524.9" fill="#141C33" opacity="1.0"/><polygon points="453.0,483.7 475.2,431.3 497.4,483.7" fill="#3C4E74" opacity="0.75"/><polygon points="446.8,460.1 479.8,362.5 495.9,462.0" fill="#141C33" opacity="1.0"/><polygon points="461.7,419.8 475.9,367.5 488.7,419.8" fill="#3C4E74" opacity="0.75"/><rect x="731.1" y="650.5" width="12.7" height="55.6" fill="#141C33" opacity="1.0"/><polygon points="669.3,664.0 733.4,572.7 811.3,661.4" fill="#141C33" opacity="1.0"/><polygon points="702.1,624.3 739.8,577.2 772.8,624.3" fill="#3C4E74" opacity="0.75"/><polygon points="684.7,604.3 733.6,515.3 788.5,604.5" fill="#141C33" opacity="1.0"/><polygon points="709.9,566.9 739.6,519.7 765.0,566.9" fill="#3C4E74" opacity="0.75"/><polygon points="692.7,548.0 740.9,457.8 772.1,544.4" fill="#141C33" opacity="1.0"/><polygon points="717.6,509.4 734.7,462.3 757.3,509.4" fill="#3C4E74" opacity="0.75"/><polygon points="711.5,488.1 733.9,400.4 767.0,487.1" fill="#141C33" opacity="1.0"/><polygon points="725.4,452.0 738.5,404.8 749.5,452.0" fill="#3C4E74" opacity="0.75"/><rect x="900.2" y="651.9" width="12.0" height="52.5" fill="#141C33" opacity="1.0"/><polygon points="834.8,664.5 908.0,578.4 975.1,663.7" fill="#141C33" opacity="1.0"/><polygon points="873.0,627.1 904.9,582.6 939.4,627.1" fill="#3C4E74" opacity="0.75"/><polygon points="858.6,607.9 909.0,524.2 962.9,609.6" fill="#141C33" opacity="1.0"/><polygon points="880.3,572.9 904.4,528.4 932.1,572.9" fill="#3C4E74" opacity="0.75"/><polygon points="872.7,553.4 904.2,470.0 946.7,555.9" fill="#141C33" opacity="1.0"/><polygon points="887.6,518.7 907.5,474.2 924.8,518.7" fill="#3C4E74" opacity="0.75"/><polygon points="887.4,497.4 904.9,415.8 923.9,497.9" fill="#141C33" opacity="1.0"/><polygon points="894.9,464.5 907.2,420.0 917.5,464.5" fill="#3C4E74" opacity="0.75"/><rect x="1046.2" y="636.9" width="17.3" height="70.6" fill="#141C33" opacity="1.0"/><polygon points="963.9,651.5 1056.5,538.1 1147.4,652.3" fill="#141C33" opacity="1.0"/><polygon points="1006.9,603.6 1051.4,543.7 1102.8,603.6" fill="#3C4E74" opacity="0.75"/><polygon points="976.8,581.3 1058.2,465.1 1137.2,574.9" fill="#141C33" opacity="1.0"/><polygon points="1017.4,530.6 1052.5,470.8 1092.3,530.6" fill="#3C4E74" opacity="0.75"/><polygon points="997.4,501.8 1053.8,392.2 1104.6,507.0" fill="#141C33" opacity="1.0"/><polygon points="1028.0,457.7 1055.9,397.8 1081.7,457.7" fill="#3C4E74" opacity="0.75"/><polygon points="1016.2,432.3 1049.5,319.3 1083.5,435.6" fill="#141C33" opacity="1.0"/><polygon points="1038.5,384.8 1056.7,324.9 1071.2,384.8" fill="#3C4E74" opacity="0.75"/><rect x="1379.4" y="619.2" width="22.0" height="92.9" fill="#141C33" opacity="1.0"/><polygon points="1271.1,640.6 1391.0,489.1 1503.1,641.3" fill="#141C33" opacity="1.0"/><polygon points="1329.3,575.3 1387.5,496.5 1451.5,575.3" fill="#3C4E74" opacity="0.75"/><polygon points="1294.4,543.0 1388.0,393.0 1480.8,536.9" fill="#141C33" opacity="1.0"/><polygon points="1342.7,479.3 1386.7,400.5 1438.1,479.3" fill="#3C4E74" opacity="0.75"/><polygon points="1320.3,443.0 1392.9,297.0 1463.4,444.7" fill="#141C33" opacity="1.0"/><polygon points="1356.2,383.3 1388.4,304.4 1424.6,383.3" fill="#3C4E74" opacity="0.75"/><polygon points="1339.8,346.7 1394.5,201.0 1427.2,350.7" fill="#141C33" opacity="1.0"/><polygon points="1369.6,287.2 1386.9,208.4 1411.2,287.2" fill="#3C4E74" opacity="0.75"/><rect x="1487.2" y="633.1" width="16.9" height="68.8" fill="#141C33" opacity="1.0"/><polygon points="1407.3,648.6 1500.2,536.8 1594.7,643.3" fill="#141C33" opacity="1.0"/><polygon points="1448.6,600.6 1493.2,542.3 1542.7,600.6" fill="#3C4E74" opacity="0.75"/><polygon points="1416.3,578.8 1499.1,465.8 1562.7,578.2" fill="#141C33" opacity="1.0"/><polygon points="1458.9,529.6 1499.0,471.3 1532.3,529.6" fill="#3C4E74" opacity="0.75"/><polygon points="1443.0,502.0 1499.6,394.7 1555.4,505.2" fill="#141C33" opacity="1.0"/><polygon points="1469.3,458.5 1496.3,400.2 1522.0,458.5" fill="#3C4E74" opacity="0.75"/><polygon points="1468.0,430.1 1499.3,323.7 1530.1,435.0" fill="#141C33" opacity="1.0"/><polygon points="1479.6,387.5 1493.5,329.2 1511.6,387.5" fill="#3C4E74" opacity="0.75"/><path d="M -60 754.8 Q 45.0 747.1 150.0 755.9 Q 255.0 746.5 360.0 760.4 Q 465.0 752.0 570.0 766.6 Q 675.0 746.4 780.0 751.0 Q 885.0 763.9 990.0 753.5 Q 1095.0 758.6 1200.0 753.7 Q 1305.0 762.4 1410.0 765.4 Q 1515.0 747.4 1620.0 754.7 Q 1725.0 769.0 1830.0 756.4 L 1660 940 L -60 940 Z" fill="#9DB4CC" opacity="1.0"/><circle cx="800.0" cy="560.0" r="460.0" fill="url(#warm7)" opacity="1.0"/><path d="M -60 844.5 Q 45.0 838.3 150.0 835.3 Q 255.0 835.5 360.0 844.1 Q 465.0 838.2 570.0 831.3 Q 675.0 844.5 780.0 833.1 Q 885.0 852.4 990.0 831.4 Q 1095.0 851.8 1200.0 833.0 Q 1305.0 827.0 1410.0 837.9 Q 1515.0 847.9 1620.0 845.9 Q 1725.0 837.3 1830.0 828.5 L 1660 940 L -60 940 Z" fill="#EDF2F7" opacity="1.0"/><path d="M 1120 880 l 0 -180 l 250 0 l 0 180 Z" fill="#3A4560"/><path d="M 1092 704 l 153 -104 l 153 104 Z" fill="#2A3348"/><path d="M 1092 704 l 153 -104 l 153 104 Z" fill="#EDF2F7" opacity="0.22"/><rect x="1300" y="560" width="34" height="70" fill="#2A3348"/><rect x="1178" y="762" width="72" height="118" rx="6" fill="#F4B03C" opacity="0.75"/><rect x="1178" y="762" width="72" height="118" rx="6" fill="none" stroke="#2A3348" stroke-width="7"/><rect x="1266.6" y="808.4" width="43.4" height="13.1" rx="4" fill="#46536F" opacity="0.55"/><rect x="1137.2" y="733.9" width="25.0" height="19.1" rx="4" fill="#46536F" opacity="0.55"/><rect x="1251.2" y="789.2" width="33.7" height="17.5" rx="4" fill="#46536F" opacity="0.55"/><rect x="1295.8" y="850.6" width="28.9" height="16.5" rx="4" fill="#46536F" opacity="0.55"/><rect x="1206.7" y="839.3" width="43.2" height="15.0" rx="4" fill="#46536F" opacity="0.55"/><rect x="1336.3" y="730.4" width="31.3" height="14.8" rx="4" fill="#46536F" opacity="0.55"/><rect x="1190.8" y="724.7" width="39.0" height="12.2" rx="4" fill="#46536F" opacity="0.55"/><rect x="1306.4" y="759.6" width="20.2" height="19.7" rx="4" fill="#46536F" opacity="0.55"/><rect x="1194.9" y="852.8" width="31.6" height="15.0" rx="4" fill="#46536F" opacity="0.55"/><rect x="1317.6" y="814.7" width="38.8" height="14.9" rx="4" fill="#46536F" opacity="0.55"/><rect x="1340.9" y="824.4" width="38.1" height="17.7" rx="4" fill="#46536F" opacity="0.55"/><rect x="1275.8" y="763.9" width="39.7" height="20.0" rx="4" fill="#46536F" opacity="0.55"/><rect x="1145.4" y="765.6" width="42.4" height="19.4" rx="4" fill="#46536F" opacity="0.55"/><rect x="1261.9" y="869.0" width="23.0" height="17.0" rx="4" fill="#46536F" opacity="0.55"/><rect x="1242.8" y="799.5" width="24.3" height="19.6" rx="4" fill="#46536F" opacity="0.55"/><rect x="1206.0" y="807.3" width="28.1" height="15.0" rx="4" fill="#46536F" opacity="0.55"/><rect x="1236.7" y="738.1" width="33.5" height="16.3" rx="4" fill="#46536F" opacity="0.55"/><rect x="1211.5" y="833.6" width="26.6" height="13.6" rx="4" fill="#46536F" opacity="0.55"/><rect x="1140.3" y="794.3" width="21.3" height="15.4" rx="4" fill="#46536F" opacity="0.55"/><rect x="1172.8" y="761.9" width="27.6" height="18.6" rx="4" fill="#46536F" opacity="0.55"/><rect x="1205.5" y="753.8" width="28.1" height="19.0" rx="4" fill="#46536F" opacity="0.55"/><rect x="1268.6" y="767.4" width="36.7" height="18.9" rx="4" fill="#46536F" opacity="0.55"/><rect x="1272.9" y="806.8" width="32.9" height="16.9" rx="4" fill="#46536F" opacity="0.55"/><rect x="1297.4" y="808.4" width="35.5" height="16.1" rx="4" fill="#46536F" opacity="0.55"/><rect x="1222.4" y="840.0" width="39.5" height="12.7" rx="4" fill="#46536F" opacity="0.55"/><rect x="1340.5" y="748.0" width="30.2" height="15.9" rx="4" fill="#46536F" opacity="0.55"/><g transform="translate(800.0,872.0) scale(0.9)"><ellipse cx="0" cy="2" rx="26" ry="7" fill="#070B16" opacity="0.55"/><path d="M -15 0 L -9 -22 L 9 -22 L 15 0 Z" fill="#0B1020"/><rect x="-4" y="-250" width="8" height="230" fill="#0B1020"/><rect x="-13" y="-232" width="26" height="5" rx="2" fill="#0B1020"/><path d="M -25 -250 L 25 -250 L 19 -308 L -19 -308 Z" fill="#0B1020"/><path d="M -20 -254 L 20 -254 L 15 -304 L -15 -304 Z" fill="url(#glass7)" opacity="1.0"/><ellipse cx="0" cy="-276" rx="7" ry="13" fill="#FFE6A8" opacity="1.0" filter="url(#soft7)"/><ellipse cx="0" cy="-278" rx="3" ry="7" fill="#FFFFFF" opacity="0.9"/><path d="M -30 -308 L 30 -308 L 0 -338 Z" fill="#0B1020"/><circle cx="0" cy="-342" r="5" fill="#0B1020"/></g><g transform="translate(742,690) rotate(-18)"><rect x="0" y="0" width="52" height="14" rx="2" fill="#8C4A3A"/><rect x="0" y="2" width="52" height="4" fill="#E4D9C2"/></g><g transform="translate(700,742) rotate(24)"><rect x="0" y="0" width="46" height="13" rx="2" fill="#5E6B8C"/><rect x="0" y="2" width="46" height="4" fill="#E4D9C2"/></g><g transform="translate(806,700) rotate(12)"><path d="M 0 12 q 4 -16 22 -14 l 20 2 q 8 6 -2 14 Z" fill="#A87C4A"/></g><circle cx="800" cy="600" r="26" fill="#FFE6A8" opacity="0.6" filter="url(#soft7)"/><circle cx="848.9" cy="648.0" r="1.6" fill="#FFE6A8" opacity="0.8"/><circle cx="804.9" cy="481.0" r="2.2" fill="#FFE6A8" opacity="0.5"/><circle cx="828.6" cy="558.0" r="2.2" fill="#FFE6A8" opacity="0.7"/><circle cx="830.2" cy="491.1" r="3.5" fill="#FFE6A8" opacity="0.7"/><circle cx="843.8" cy="549.4" r="2.6" fill="#FFE6A8" opacity="0.6"/><circle cx="859.4" cy="561.2" r="3.6" fill="#FFE6A8" opacity="0.9"/><circle cx="775.0" cy="549.5" r="4.0" fill="#FFE6A8" opacity="0.7"/><circle cx="863.1" cy="593.1" r="3.7" fill="#FFE6A8" opacity="0.4"/><circle cx="826.7" cy="509.1" r="1.7" fill="#FFE6A8" opacity="0.3"/><circle cx="720.4" cy="528.5" r="2.7" fill="#FFE6A8" opacity="0.6"/><circle cx="851.1" cy="571.4" r="1.7" fill="#FFE6A8" opacity="0.6"/><circle cx="733.1" cy="444.6" r="3.5" fill="#FFE6A8" opacity="0.4"/><circle cx="773.1" cy="635.4" r="1.9" fill="#FFE6A8" opacity="0.3"/><circle cx="840.1" cy="506.8" r="1.8" fill="#FFE6A8" opacity="0.6"/><circle cx="834.5" cy="466.9" r="3.0" fill="#FFE6A8" opacity="0.4"/><circle cx="772.1" cy="547.3" r="1.7" fill="#FFE6A8" opacity="0.4"/><circle cx="858.1" cy="585.0" r="1.6" fill="#FFE6A8" opacity="0.8"/><circle cx="825.3" cy="650.0" r="3.8" fill="#FFE6A8" opacity="0.7"/><circle cx="772.5" cy="475.4" r="2.9" fill="#FFE6A8" opacity="0.5"/><circle cx="856.7" cy="441.4" r="2.8" fill="#FFE6A8" opacity="0.6"/><circle cx="796.2" cy="569.4" r="3.6" fill="#FFE6A8" opacity="0.8"/><circle cx="857.6" cy="538.4" r="2.0" fill="#FFE6A8" opacity="0.4"/><g transform="translate(986.0,886.0) scale(1.9)"><g transform="translate(0,0)"><ellipse cx="0" cy="1" rx="30" ry="7" fill="#050A16" opacity="0.35"/><path d="M -13 0 l 0 -44 l 10 0 l 0 44 Z" fill="#1C2C55"/><path d="M 3 0 l 0 -44 l 10 0 l 0 44 Z" fill="#1C2C55"/><path d="M -23 -30 l 5 12 l 6 -10 l 5 13 l 6 -11 l 5 12 l 6 -9 l 5 11 l 4 -13 l 0 -46 q -10 -18 -21 -18 q -11 0 -21 18 Z" transform="translate(-1,-6)" fill="#2B3F73"/><path d="M -8 -84 q 8 26 4 58" stroke="#1C2C55" stroke-width="4" fill="none" opacity="0.6"/><path d="M -13 -86 q 13 8 26 0 l 2 10 q -15 9 -30 0 Z" fill="#1C2C55"/><path d="M 10 -80 q 14 16 12 32" stroke="#D9B08C" stroke-width="8" fill="none" stroke-linecap="round"/><circle cx="22" cy="-46" r="6" fill="#D9B08C"/><path d="M -10 -80 q -14 16 -12 32" stroke="#D9B08C" stroke-width="8" fill="none" stroke-linecap="round"/><circle cx="-22" cy="-46" r="6" fill="#D9B08C"/>
<g transform="translate(0,-104) rotate(0.0)">
  <path d="M -17 -8 q -4 16 -2 22 q 19 4 38 0 q 2 -6 -2 -22 Z" fill="#CBD8E8"/>
  <circle cx="0" cy="0" r="14" fill="#F0C9A6" stroke="none" stroke-width="1.2"/>
  <path d="M -14 -3 q 1 -14 14 -14 q 13 0 14 14 q -4 -9 -13 -9 q -9 0 -11 6
           q -2 4 -4 3 Z" fill="#E9EFF6"/>
  <path d="M -1 -16 q 10 1 13 9 q -6 -5 -14 -4 Z" fill="#CBD8E8"/>
  <circle cx="-5.5" cy="1" r="2" fill="#3E4A63"/>
  <circle cx="5.5" cy="1" r="2" fill="#3E4A63"/>
  <path d="M -3 8 q 3 2.5 6 0" stroke="#3E4A63" stroke-width="1.5" fill="none"
        stroke-linecap="round" opacity="0.75"/>
  <path d="M -12 -8 q 12 -6 24 0" stroke="#9FD6E8" stroke-width="2.4" fill="none"
        stroke-linecap="round"/>
  <path d="M -6 -9 l -1 -4 M 0 -10.5 l 0 -5 M 6 -9 l 1 -4" stroke="#9FD6E8"
        stroke-width="2" stroke-linecap="round"/>
</g></g></g><g transform="translate(620.0,890.0) scale(1.8)"><g transform="translate(0,0)"><ellipse cx="0" cy="1" rx="24" ry="6" fill="#050A16" opacity="0.35"/><path d="M -10 0 l 0 -12 l 8 0 l 0 12 Z" fill="#402C21"/><path d="M 2 0 l 0 -12 l 8 0 l 0 12 Z" fill="#402C21"/><path d="M -17 -8 q -2 -38 5 -52 l 24 0 q 7 14 5 52 Z" fill="#4E7A4A"/><rect x="-13" y="-30" width="10" height="8" rx="2" fill="#3A5D37"/><rect x="4" y="-19" width="8" height="7" rx="2" fill="#3A5D37"/><path d="M 6 -54 q 20 2 30 -4" stroke="#3A5D37" stroke-width="9" fill="none" stroke-linecap="round"/><circle cx="38" cy="-59" r="5.5" fill="#7A4A2E"/><path d="M -6 -54 q -13 10 -14 24" stroke="#3A5D37" stroke-width="9" fill="none" stroke-linecap="round"/><circle cx="-21" cy="-28" r="5.5" fill="#7A4A2E"/>
<path d="M -13 -62 q 13 7 26 0 l 0 8 q -13 7 -26 0 Z" fill="#C0453B"/>
<path d="M 9 -58 q 12 8 8 24 q -2 8 -9 6 q 4 -14 -5 -26 Z" fill="#A83A31"/>
<g transform="translate(0,-78) rotate(0.0)">
  <path d="M -16 -6 q 0 -20 16 -20 q 16 0 16 20 q 0 6 -3 10 l -26 0 q -3 -4 -3 -10 Z" fill="#241A16"/>
  <circle cx="0" cy="0" r="14" fill="#D9A379"/>
  <path d="M -14 -3 q 2 -13 14 -13 q 12 0 14 13 q -6 -6 -14 -6 q -8 0 -14 6 Z" fill="#241A16"/>
  <ellipse cx="-15" cy="4" rx="5" ry="8" fill="#241A16"/>
  <ellipse cx="15" cy="4" rx="5" ry="8" fill="#241A16"/>
  <ellipse cx="-15" cy="12" rx="4" ry="6" fill="#241A16"/>
  <ellipse cx="15" cy="12" rx="4" ry="6" fill="#241A16"/>
  <circle cx="-5.5" cy="1" r="2" fill="#241A16"/>
  <circle cx="5.5" cy="1" r="2" fill="#241A16"/>
  <circle cx="-9" cy="5.5" r="1" fill="#B5764F" opacity="0.8"/>
  <circle cx="-6" cy="7" r="1" fill="#B5764F" opacity="0.8"/>
  <circle cx="8" cy="5.5" r="1" fill="#B5764F" opacity="0.8"/>
  <path d="M -3 7 q 3 3 6 0" stroke="#8A5638" stroke-width="1.6" fill="none" stroke-linecap="round"/>
  <path d="M -17 -8 q 17 -16 34 0 q 0 -19 -17 -19 q -17 0 -17 19 Z" fill="#B4552F"/>
  <rect x="-17" y="-9" width="34" height="6" rx="3" fill="#9A4526"/>
  <circle cx="0" cy="-29" r="5" fill="#B4552F"/>
</g></g></g><rect x="110.1" y="883.2" width="19.8" height="96.0" fill="#0A0F1E" opacity="1.0"/><polygon points="15.9,901.9 116.5,748.8 235.6,901.3" fill="#0A0F1E" opacity="1.0"/><polygon points="32.7,806.8 126.0,649.6 205.5,806.8" fill="#0A0F1E" opacity="1.0"/><polygon points="50.0,702.9 121.6,550.4 183.8,704.0" fill="#0A0F1E" opacity="1.0"/><polygon points="82.2,608.2 123.4,451.2 163.6,604.7" fill="#0A0F1E" opacity="1.0"/><rect width="1600" height="900" fill="url(#vig7)"/><rect width="1600" height="900" filter="url(#grain7)" opacity="0.07" style="mix-blend-mode:overlay"/></svg>