<svg xmlns="http://www.w3.org/2000/svg" viewBox="0 0 1600 900" width="1600" height="900" role="img"><defs>
  <linearGradient id="sky9" x1="0" y1="0" x2="0" y2="1">
    <stop offset="0%" stop-color="#1B2450"/><stop offset="58%" stop-color="#16203D"/><stop offset="100%" stop-color="#2A3A5E"/>
  </linearGradient>
  <radialGradient id="warm9">
    <stop offset="0%" stop-color="#F4B03C" stop-opacity="0.6"/>
    <stop offset="45%" stop-color="#F4B03C" stop-opacity="0.23"/>
    <stop offset="100%" stop-color="#F4B03C" stop-opacity="0"/>
  </radialGradient>
  <linearGradient id="glass9" x1="0" y1="0" x2="0" y2="1">
    <stop offset="0%" stop-color="#FFE6A8"/><stop offset="100%" stop-color="#F4B03C"/>
  </linearGradient>
  <radialGradient id="vig9">
    <stop offset="55%" stop-color="#000000" stop-opacity="0"/>
    <stop offset="100%" stop-color="#000814" stop-opacity="0.55"/>
  </radialGradient>
  <filter id="soft9" x="-120%" y="-120%" width="340%" height="340%">
    <feGaussianBlur stdDeviation="7"/>
  </filter>
  <filter id="grain9" x="0" y="0" width="100%" height="100%">
    <feTurbulence type="fractalNoise" baseFrequency="0.9" numOctaves="3" seed="9"/>
    <feColorMatrix type="saturate" values="0"/>
  </filter>
  
</defs><rect width="1600" height="900" fill="url(#sky9)"/><circle cx="961.1" cy="387.4" r="1.9" fill="#FFFFFF" opacity="0.9"/><circle cx="55.6" cy="268.6" r="1.8" fill="#FFFFFF" opacity="0.6"/><circle cx="1053.6" cy="304.7" r="1.1" fill="#FFFFFF" opacity="0.8"/><circle cx="1179.5" cy="514.5" r="0.9" fill="#FFFFFF" opacity="0.3"/><circle cx="337.6" cy="498.6" r="1.3" fill="#FFFFFF" opacity="0.6"/><circle cx="649.9" cy="22.4" r="1.8" fill="#FFFFFF" opacity="0.5"/><circle cx="240.1" cy="197.6" r="1.3" fill="#FFFFFF" opacity="0.5"/><circle cx="414.8" cy="554.3" r="1.7" fill="#FFFFFF" opacity="0.5"/><circle cx="1391.1" cy="456.8" r="1.6" fill="#FFFFFF" opacity="0.5"/><circle cx="921.8" cy="154.7" r="1.3" fill="#FFFFFF" opacity="0.3"/><circle cx="1367.1" cy="402.5" r="2.2" fill="#FFFFFF" opacity="0.6"/><circle cx="1162.5" cy="419.8" r="0.9" fill="#FFFFFF" opacity="0.9"/><circle cx="235.1" cy="405.5" r="1.1" fill="#FFFFFF" opacity="0.6"/><circle cx="115.4" cy="536.4" r="1.4" fill="#FFFFFF" opacity="0.4"/><circle cx="1096.5" cy="425.7" r="1.0" fill="#FFFFFF" opacity="0.7"/><circle cx="1190.3" cy="491.1" r="2.0" fill="#FFFFFF" opacity="0.6"/><circle cx="830.3" cy="246.3" r="1.8" fill="#FFFFFF" opacity="0.3"/><circle cx="471.6" cy="9.1" r="1.3" fill="#FFFFFF" opacity="0.8"/><circle cx="1437.3" cy="477.1" r="2.0" fill="#FFFFFF" opacity="0.7"/><circle cx="362.4" cy="503.8" r="2.1" fill="#FFFFFF" opacity="0.4"/><circle cx="383.9" cy="409.3" r="1.5" fill="#FFFFFF" opacity="0.6"/><circle cx="628.2" cy="515.3" r="1.3" fill="#FFFFFF" opacity="0.3"/><circle cx="1545.4" cy="559.3" r="2.2" fill="#FFFFFF" opacity="0.8"/><circle cx="440.3" cy="319.6" r="1.9" fill="#FFFFFF" opacity="0.5"/><circle cx="350.3" cy="382.8" r="1.8" fill="#FFFFFF" opacity="0.6"/><circle cx="220.0" cy="28.0" r="1.7" fill="#FFFFFF" opacity="0.8"/><circle cx="723.4" cy="118.7" r="1.9" fill="#FFFFFF" opacity="0.4"/><circle cx="82.1" cy="135.8" r="1.3" fill="#FFFFFF" opacity="0.5"/><circle cx="1430.4" cy="43.5" r="0.8" fill="#FFFFFF" opacity="0.8"/><circle cx="1278.6" cy="41.4" r="1.0" fill="#FFFFFF" opacity="0.5"/><circle cx="1420.9" cy="494.8" r="1.3" fill="#FFFFFF" opacity="0.6"/><circle cx="1042.7" cy="135.5" r="1.8" fill="#FFFFFF" opacity="0.5"/><circle cx="172.5" cy="426.1" r="1.6" fill="#FFFFFF" opacity="0.8"/><circle cx="32.3" cy="180.1" r="1.8" fill="#FFFFFF" opacity="0.9"/><circle cx="1034.3" cy="90.3" r="2.0" fill="#FFFFFF" opacity="0.4"/><circle cx="1574.1" cy="137.6" r="0.9" fill="#FFFFFF" opacity="0.7"/><circle cx="1571.2" cy="13.9" r="2.0" fill="#FFFFFF" opacity="0.6"/><circle cx="1106.7" cy="89.8" r="1.2" fill="#FFFFFF" opacity="0.6"/><circle cx="1307.0" cy="181.2" r="2.1" fill="#FFFFFF" opacity="0.3"/><circle cx="1025.1" cy="366.8" r="1.6" fill="#FFFFFF" opacity="0.8"/><circle cx="1268.4" cy="548.3" r="1.4" fill="#FFFFFF" opacity="0.6"/><circle cx="1323.8" cy="206.6" r="1.8" fill="#FFFFFF" opacity="0.6"/><circle cx="129.0" cy="86.9" r="1.3" fill="#FFFFFF" opacity="0.4"/><circle cx="1241.2" cy="543.6" r="1.1" fill="#FFFFFF" opacity="0.3"/><circle cx="1352.7" cy="519.0" r="1.0" fill="#FFFFFF" opacity="0.8"/><circle cx="702.8" cy="287.8" r="1.9" fill="#FFFFFF" opacity="0.7"/><circle cx="937.5" cy="180.1" r="1.8" fill="#FFFFFF" opacity="0.4"/><circle cx="1565.2" cy="94.2" r="2.1" fill="#FFFFFF" opacity="0.4"/><circle cx="559.6" cy="414.0" r="1.7" fill="#FFFFFF" opacity="0.5"/><circle cx="659.7" cy="181.2" r="1.9" fill="#FFFFFF" opacity="0.4"/><circle cx="1316.5" cy="416.5" r="1.8" fill="#FFFFFF" opacity="0.8"/><circle cx="236.3" cy="40.5" r="0.8" fill="#FFFFFF" opacity="0.5"/><circle cx="471.4" cy="129.5" r="1.4" fill="#FFFFFF" opacity="0.7"/><circle cx="607.2" cy="35.5" r="1.5" fill="#FFFFFF" opacity="0.4"/><circle cx="796.6" cy="545.3" r="1.9" fill="#FFFFFF" opacity="0.6"/><circle cx="590.8" cy="410.5" r="1.2" fill="#FFFFFF" opacity="0.5"/><circle cx="517.4" cy="300.3" r="1.8" fill="#FFFFFF" opacity="0.4"/><circle cx="955.2" cy="510.1" r="1.4" fill="#FFFFFF" opacity="0.3"/><circle cx="655.7" cy="319.1" r="2.0" fill="#FFFFFF" opacity="0.6"/><circle cx="1261.9" cy="447.7" r="0.9" fill="#FFFFFF" opacity="0.7"/><circle cx="973.8" cy="269.0" r="1.3" fill="#FFFFFF" opacity="0.8"/><circle cx="1310.1" cy="185.2" r="0.9" fill="#FFFFFF" opacity="0.8"/><circle cx="518.2" cy="263.5" r="1.5" fill="#FFFFFF" opacity="0.5"/><circle cx="779.7" cy="501.5" r="1.8" fill="#FFFFFF" opacity="0.5"/><circle cx="1163.4" cy="536.8" r="1.5" fill="#FFFFFF" opacity="0.7"/><circle cx="275.5" cy="251.9" r="1.1" fill="#FFFFFF" opacity="0.6"/><circle cx="1355.6" cy="207.6" r="1.7" fill="#FFFFFF" opacity="0.7"/><circle cx="570.9" cy="557.0" r="2.0" fill="#FFFFFF" opacity="0.3"/><circle cx="856.3" cy="173.2" r="1.9" fill="#FFFFFF" opacity="0.7"/><circle cx="51.7" cy="241.9" r="1.7" fill="#FFFFFF" opacity="0.6"/><circle cx="486.3" cy="53.6" r="1.4" fill="#FFFFFF" opacity="0.7"/><circle cx="1559.5" cy="445.2" r="0.8" fill="#FFFFFF" opacity="0.8"/><circle cx="69.1" cy="385.8" r="2.1" fill="#FFFFFF" opacity="0.6"/><circle cx="1435.9" cy="477.9" r="1.0" fill="#FFFFFF" opacity="0.5"/><circle cx="975.3" cy="547.2" r="1.1" fill="#FFFFFF" opacity="0.3"/><circle cx="766.0" cy="52.7" r="1.6" fill="#FFFFFF" opacity="0.6"/><circle cx="465.5" cy="250.5" r="2.0" fill="#FFFFFF" opacity="0.9"/><circle cx="422.2" cy="43.1" r="1.1" fill="#FFFFFF" opacity="0.8"/><circle cx="234.8" cy="127.2" r="1.3" fill="#FFFFFF" opacity="0.9"/><circle cx="708.0" cy="92.1" r="1.8" fill="#FFFFFF" opacity="0.6"/><circle cx="356.0" cy="281.7" r="1.2" fill="#FFFFFF" opacity="0.8"/><circle cx="801.6" cy="351.7" r="1.0" fill="#FFFFFF" opacity="0.5"/><circle cx="1023.7" cy="175.7" r="1.0" fill="#FFFFFF" opacity="0.3"/><circle cx="1199.9" cy="71.7" r="1.0" fill="#FFFFFF" opacity="0.9"/><circle cx="897.9" cy="401.9" r="2.1" fill="#FFFFFF" opacity="0.8"/><circle cx="1162.0" cy="318.7" r="1.6" fill="#FFFFFF" opacity="0.5"/><circle cx="47.8" cy="188.2" r="1.3" fill="#FFFFFF" opacity="0.6"/><circle cx="753.0" cy="185.4" r="1.0" fill="#FFFFFF" opacity="0.7"/><circle cx="1095.5" cy="151.8" r="2.2" fill="#FFFFFF" opacity="0.9"/><circle cx="1087.9" cy="489.6" r="1.8" fill="#FFFFFF" opacity="0.4"/><circle cx="559.7" cy="223.3" r="2.0" fill="#FFFFFF" opacity="0.4"/><circle cx="1175.4" cy="403.1" r="1.1" fill="#FFFFFF" opacity="0.7"/><circle cx="799.8" cy="20.7" r="1.5" fill="#FFFFFF" opacity="0.5"/><circle cx="961.1" cy="451.0" r="0.9" fill="#FFFFFF" opacity="0.5"/><circle cx="959.2" cy="553.2" r="1.7" fill="#FFFFFF" opacity="0.7"/><circle cx="972.1" cy="120.5" r="1.0" fill="#FFFFFF" opacity="0.8"/><circle cx="509.0" cy="535.7" r="1.8" fill="#FFFFFF" opacity="0.9"/><circle cx="160.0" cy="160.2" r="1.1" fill="#FFFFFF" opacity="0.7"/><circle cx="992.5" cy="192.9" r="1.2" fill="#FFFFFF" opacity="0.4"/><circle cx="1545.1" cy="49.0" r="2.2" fill="#FFFFFF" opacity="0.5"/><circle cx="1167.9" cy="232.7" r="1.3" fill="#FFFFFF" opacity="0.6"/><circle cx="59.9" cy="155.2" r="2.0" fill="#FFFFFF" opacity="0.3"/><circle cx="1553.0" cy="471.1" r="1.6" fill="#FFFFFF" opacity="0.5"/><circle cx="593.1" cy="185.6" r="1.6" fill="#FFFFFF" opacity="0.9"/><circle cx="768.2" cy="345.5" r="1.2" fill="#FFFFFF" opacity="0.7"/><circle cx="633.1" cy="84.8" r="1.6" fill="#FFFFFF" opacity="0.7"/><circle cx="1280.9" cy="199.5" r="1.5" fill="#FFFFFF" opacity="0.6"/><circle cx="1511.8" cy="23.5" r="1.7" fill="#FFFFFF" opacity="0.4"/><circle cx="548.6" cy="536.4" r="1.5" fill="#FFFFFF" opacity="0.5"/><circle cx="248.6" cy="38.5" r="1.9" fill="#FFFFFF" opacity="0.4"/><circle cx="1163.2" cy="363.4" r="2.1" fill="#FFFFFF" opacity="0.7"/><circle cx="393.8" cy="441.3" r="1.8" fill="#FFFFFF" opacity="0.4"/><circle cx="1594.5" cy="225.8" r="2.0" fill="#FFFFFF" opacity="0.9"/><circle cx="272.5" cy="196.9" r="1.5" fill="#FFFFFF" opacity="0.7"/><circle cx="1133.9" cy="411.1" r="1.8" fill="#FFFFFF" opacity="0.5"/><circle cx="228.3" cy="553.5" r="2.1" fill="#FFFFFF" opacity="0.6"/><circle cx="1438.4" cy="482.6" r="1.0" fill="#FFFFFF" opacity="0.4"/><circle cx="67.4" cy="481.0" r="1.4" fill="#FFFFFF" opacity="0.3"/><circle cx="1473.9" cy="144.2" r="1.5" fill="#FFFFFF" opacity="0.4"/><circle cx="1101.8" cy="160.5" r="1.9" fill="#FFFFFF" opacity="0.4"/><circle cx="259.4" cy="313.8" r="1.9" fill="#FFFFFF" opacity="0.4"/><circle cx="1593.3" cy="202.9" r="1.5" fill="#FFFFFF" opacity="0.6"/><circle cx="1010.6" cy="487.8" r="1.5" fill="#FFFFFF" opacity="0.4"/><circle cx="1597.3" cy="518.3" r="1.2" fill="#FFFFFF" opacity="0.4"/><circle cx="683.7" cy="234.8" r="1.8" fill="#FFFFFF" opacity="0.8"/><circle cx="1206.6" cy="515.1" r="1.0" fill="#FFFFFF" opacity="0.3"/><circle cx="118.8" cy="340.0" r="1.5" fill="#FFFFFF" opacity="0.6"/><circle cx="194.9" cy="68.8" r="1.6" fill="#FFFFFF" opacity="0.8"/><circle cx="1184.3" cy="239.1" r="1.5" fill="#FFFFFF" opacity="0.3"/><circle cx="660.9" cy="141.3" r="1.8" fill="#FFFFFF" opacity="0.5"/><circle cx="519.9" cy="142.4" r="1.6" fill="#FFFFFF" opacity="0.8"/><circle cx="1471.5" cy="249.7" r="2.1" fill="#FFFFFF" opacity="0.3"/><circle cx="681.1" cy="8.7" r="2.0" fill="#FFFFFF" opacity="0.6"/><circle cx="506.4" cy="65.7" r="2.0" fill="#FFFFFF" opacity="0.3"/><circle cx="282.2" cy="409.7" r="1.0" fill="#FFFFFF" opacity="0.4"/><circle cx="1500.9" cy="104.4" r="1.7" fill="#FFFFFF" opacity="0.4"/><circle cx="1540.7" cy="243.8" r="1.9" fill="#FFFFFF" opacity="0.7"/><circle cx="1490.4" cy="383.5" r="2.2" fill="#FFFFFF" opacity="0.8"/><circle cx="20.8" cy="260.1" r="1.9" fill="#FFFFFF" opacity="0.4"/><circle cx="453.7" cy="412.1" r="2.0" fill="#FFFFFF" opacity="0.8"/><circle cx="1377.0" cy="72.8" r="1.3" fill="#FFFFFF" opacity="0.6"/><circle cx="1157.0" cy="510.3" r="1.3" fill="#FFFFFF" opacity="0.3"/><circle cx="1097.9" cy="424.9" r="0.8" fill="#FFFFFF" opacity="0.6"/><circle cx="797.5" cy="537.8" r="1.3" fill="#FFFFFF" opacity="0.4"/><circle cx="850.2" cy="62.5" r="1.7" fill="#FFFFFF" opacity="0.4"/><circle cx="47.1" cy="513.0" r="2.1" fill="#FFFFFF" opacity="0.5"/><circle cx="622.3" cy="98.8" r="1.3" fill="#FFFFFF" opacity="0.9"/><circle cx="696.6" cy="322.2" r="1.7" fill="#FFFFFF" opacity="0.3"/><circle cx="267.9" cy="188.0" r="1.4" fill="#FFFFFF" opacity="0.7"/><circle cx="1498.6" cy="198.8" r="0.9" fill="#FFFFFF" opacity="0.6"/><circle cx="849.9" cy="509.6" r="2.1" fill="#FFFFFF" opacity="0.6"/><circle cx="212.3" cy="292.0" r="1.7" fill="#FFFFFF" opacity="0.7"/><circle cx="984.2" cy="42.5" r="1.2" fill="#FFFFFF" opacity="0.7"/><circle cx="246.3" cy="446.1" r="1.9" fill="#FFFFFF" opacity="0.5"/><circle cx="983.3" cy="88.6" r="1.6" fill="#FFFFFF" opacity="0.7"/><circle cx="1102.8" cy="189.4" r="1.8" fill="#FFFFFF" opacity="0.3"/><circle cx="400.3" cy="167.6" r="1.2" fill="#FFFFFF" opacity="0.3"/><circle cx="1421.6" cy="53.7" r="1.1" fill="#FFFFFF" opacity="0.6"/><circle cx="172.2" cy="280.3" r="1.9" fill="#FFFFFF" opacity="0.3"/><circle cx="223.2" cy="302.7" r="1.2" fill="#FFFFFF" opacity="0.8"/><circle cx="1364.2" cy="23.2" r="0.9" fill="#FFFFFF" opacity="0.8"/><circle cx="1153.1" cy="431.4" r="1.8" fill="#FFFFFF" opacity="0.5"/><circle cx="512.9" cy="152.4" r="1.0" fill="#FFFFFF" opacity="0.8"/><circle cx="525.3" cy="555.5" r="1.0" fill="#FFFFFF" opacity="0.3"/><circle cx="770.7" cy="437.5" r="1.4" fill="#FFFFFF" opacity="0.5"/><circle cx="766.1" cy="209.9" r="1.7" fill="#FFFFFF" opacity="0.9"/><circle cx="448.8" cy="525.9" r="1.9" fill="#FFFFFF" opacity="0.4"/><circle cx="1257.9" cy="157.8" r="1.9" fill="#FFFFFF" opacity="0.5"/><circle cx="561.6" cy="456.9" r="1.7" fill="#FFFFFF" opacity="0.4"/><circle cx="182.8" cy="490.3" r="1.3" fill="#FFFFFF" opacity="0.3"/><circle cx="970.1" cy="265.3" r="2.0" fill="#FFFFFF" opacity="0.5"/><circle cx="966.6" cy="54.8" r="1.8" fill="#FFFFFF" opacity="0.4"/><circle cx="1125.6" cy="356.1" r="1.8" fill="#FFFFFF" opacity="0.3"/><circle cx="922.3" cy="14.8" r="2.2" fill="#FFFFFF" opacity="0.6"/><circle cx="613.7" cy="408.1" r="1.4" fill="#FFFFFF" opacity="0.6"/><circle cx="494.1" cy="338.0" r="1.0" fill="#FFFFFF" opacity="0.4"/><circle cx="1098.0" cy="168.1" r="1.9" fill="#FFFFFF" opacity="0.5"/><circle cx="1100.7" cy="416.2" r="1.1" fill="#FFFFFF" opacity="0.7"/><circle cx="63.7" cy="455.1" r="1.7" fill="#FFFFFF" opacity="0.7"/><circle cx="1179.6" cy="454.2" r="2.1" fill="#FFFFFF" opacity="0.5"/><circle cx="361.4" cy="454.2" r="2.1" fill="#FFFFFF" opacity="0.7"/><circle cx="30.6" cy="268.3" r="1.5" fill="#FFFFFF" opacity="0.3"/><circle cx="350.9" cy="260.7" r="1.2" fill="#FFFFFF" opacity="0.5"/><circle cx="1459.5" cy="536.3" r="1.3" fill="#FFFFFF" opacity="0.8"/><circle cx="1444.9" cy="274.0" r="1.8" fill="#FFFFFF" opacity="0.8"/><circle cx="1221.9" cy="335.5" r="1.6" fill="#FFFFFF" opacity="0.9"/><circle cx="1052.9" cy="242.1" r="2.0" fill="#FFFFFF" opacity="0.7"/><circle cx="1466.9" cy="492.8" r="0.9" fill="#FFFFFF" opacity="0.3"/><circle cx="1324.7" cy="195.3" r="1.4" fill="#FFFFFF" opacity="0.5"/><circle cx="981.1" cy="423.0" r="1.3" fill="#FFFFFF" opacity="0.7"/><circle cx="94.3" cy="470.3" r="1.1" fill="#FFFFFF" opacity="0.5"/><circle cx="1231.9" cy="218.2" r="2.2" fill="#FFFFFF" opacity="0.8"/><circle cx="823.7" cy="264.3" r="1.7" fill="#FFFFFF" opacity="0.6"/><circle cx="1011.7" cy="146.9" r="1.0" fill="#FFFFFF" opacity="0.6"/><circle cx="1546.5" cy="319.1" r="2.0" fill="#FFFFFF" opacity="0.9"/><circle cx="481.3" cy="362.7" r="0.9" fill="#FFFFFF" opacity="0.4"/><circle cx="1211.9" cy="215.2" r="1.4" fill="#FFFFFF" opacity="0.5"/><circle cx="214.0" cy="263.8" r="1.1" fill="#FFFFFF" opacity="0.3"/><circle cx="1027.9" cy="355.9" r="1.3" fill="#FFFFFF" opacity="0.5"/><circle cx="39.0" cy="302.0" r="1.3" fill="#FFFFFF" opacity="0.3"/><circle cx="805.9" cy="387.3" r="1.2" fill="#FFFFFF" opacity="0.3"/><circle cx="885.3" cy="130.8" r="2.8" fill="#FFFFFF" opacity="0.4"/><circle cx="1503.7" cy="500.2" r="2.1" fill="#FFFFFF" opacity="0.2"/><circle cx="25.6" cy="44.9" r="2.7" fill="#FFFFFF" opacity="0.2"/><circle cx="1169.5" cy="132.4" r="2.7" fill="#FFFFFF" opacity="0.3"/><circle cx="519.7" cy="752.2" r="2.5" fill="#FFFFFF" opacity="0.2"/><circle cx="285.8" cy="657.3" r="3.2" fill="#FFFFFF" opacity="0.4"/><circle cx="1258.6" cy="575.4" r="2.4" fill="#FFFFFF" opacity="0.2"/><circle cx="513.0" cy="576.5" r="2.6" fill="#FFFFFF" opacity="0.4"/><circle cx="1208.0" cy="229.6" r="2.4" fill="#FFFFFF" opacity="0.2"/><circle cx="33.2" cy="733.4" r="2.1" fill="#FFFFFF" opacity="0.4"/><circle cx="252.4" cy="555.3" r="1.6" fill="#FFFFFF" opacity="0.2"/><circle cx="1493.9" cy="864.0" r="3.3" fill="#FFFFFF" opacity="0.4"/><circle cx="1438.3" cy="587.9" r="2.8" fill="#FFFFFF" opacity="0.5"/><circle cx="551.8" cy="86.1" r="2.1" fill="#FFFFFF" opacity="0.2"/><circle cx="218.3" cy="465.2" r="1.8" fill="#FFFFFF" opacity="0.3"/><circle cx="1416.5" cy="425.4" r="2.1" fill="#FFFFFF" opacity="0.1"/><circle cx="695.1" cy="172.7" r="2.8" fill="#FFFFFF" opacity="0.3"/><circle cx="194.3" cy="778.8" r="3.3" fill="#FFFFFF" opacity="0.2"/><circle cx="1264.5" cy="425.4" r="2.9" fill="#FFFFFF" opacity="0.2"/><circle cx="31.8" cy="215.8" r="1.9" fill="#FFFFFF" opacity="0.3"/><circle cx="860.0" cy="288.3" r="2.3" fill="#FFFFFF" opacity="0.2"/><circle cx="460.1" cy="717.1" r="2.6" fill="#FFFFFF" opacity="0.2"/><circle cx="196.0" cy="533.3" r="1.2" fill="#FFFFFF" opacity="0.3"/><circle cx="937.9" cy="351.2" r="2.2" fill="#FFFFFF" opacity="0.4"/><circle cx="1211.6" cy="134.7" r="1.3" fill="#FFFFFF" opacity="0.3"/><circle cx="995.7" cy="287.4" r="2.0" fill="#FFFFFF" opacity="0.3"/><circle cx="1514.7" cy="301.0" r="1.8" fill="#FFFFFF" opacity="0.3"/><circle cx="179.5" cy="447.2" r="1.2" fill="#FFFFFF" opacity="0.2"/><circle cx="1425.2" cy="745.4" r="2.4" fill="#FFFFFF" opacity="0.4"/><circle cx="994.5" cy="893.3" r="2.2" fill="#FFFFFF" opacity="0.4"/><circle cx="1219.3" cy="792.7" r="3.3" fill="#FFFFFF" opacity="0.2"/><circle cx="448.6" cy="855.5" r="1.7" fill="#FFFFFF" opacity="0.3"/><circle cx="1372.9" cy="824.7" r="1.2" fill="#FFFFFF" opacity="0.2"/><circle cx="596.6" cy="794.3" r="1.8" fill="#FFFFFF" opacity="0.3"/><circle cx="1005.6" cy="462.3" r="1.8" fill="#FFFFFF" opacity="0.3"/><circle cx="1283.6" cy="302.1" r="2.4" fill="#FFFFFF" opacity="0.3"/><circle cx="924.0" cy="685.4" r="1.7" fill="#FFFFFF" opacity="0.5"/><circle cx="689.0" cy="842.1" r="1.5" fill="#FFFFFF" opacity="0.2"/><circle cx="66.0" cy="890.7" r="1.3" fill="#FFFFFF" opacity="0.4"/><circle cx="470.1" cy="724.4" r="1.9" fill="#FFFFFF" opacity="0.2"/><circle cx="1344.3" cy="786.2" r="2.9" fill="#FFFFFF" opacity="0.4"/><circle cx="1105.8" cy="319.2" r="2.0" fill="#FFFFFF" opacity="0.2"/><circle cx="1290.0" cy="823.7" r="3.3" fill="#FFFFFF" opacity="0.2"/><circle cx="240.5" cy="408.7" r="2.7" fill="#FFFFFF" opacity="0.3"/><circle cx="296.7" cy="269.1" r="2.7" fill="#FFFFFF" opacity="0.3"/><circle cx="427.7" cy="875.4" r="3.4" fill="#FFFFFF" opacity="0.3"/><circle cx="1463.8" cy="109.1" r="3.2" fill="#FFFFFF" opacity="0.4"/><circle cx="674.0" cy="628.1" r="2.3" fill="#FFFFFF" opacity="0.2"/><circle cx="1240.9" cy="896.9" r="2.0" fill="#FFFFFF" opacity="0.3"/><circle cx="582.4" cy="566.0" r="2.7" fill="#FFFFFF" opacity="0.2"/><circle cx="670.7" cy="34.3" r="2.0" fill="#FFFFFF" opacity="0.4"/><circle cx="1096.7" cy="579.5" r="1.7" fill="#FFFFFF" opacity="0.4"/><circle cx="433.4" cy="191.2" r="2.6" fill="#FFFFFF" opacity="0.1"/><circle cx="244.5" cy="489.2" r="2.6" fill="#FFFFFF" opacity="0.1"/><circle cx="490.5" cy="63.9" r="3.2" fill="#FFFFFF" opacity="0.4"/><circle cx="1481.7" cy="421.5" r="3.0" fill="#FFFFFF" opacity="0.2"/><circle cx="1127.9" cy="769.1" r="2.1" fill="#FFFFFF" opacity="0.2"/><circle cx="1035.4" cy="623.1" r="2.2" fill="#FFFFFF" opacity="0.2"/><circle cx="600.3" cy="877.1" r="1.7" fill="#FFFFFF" opacity="0.2"/><circle cx="648.7" cy="711.6" r="2.1" fill="#FFFFFF" opacity="0.4"/><circle cx="574.6" cy="781.3" r="2.6" fill="#FFFFFF" opacity="0.2"/><circle cx="923.5" cy="164.1" r="3.3" fill="#FFFFFF" opacity="0.3"/><circle cx="173.8" cy="205.5" r="1.3" fill="#FFFFFF" opacity="0.4"/><circle cx="864.6" cy="43.8" r="2.4" fill="#FFFFFF" opacity="0.2"/><circle cx="1020.7" cy="549.3" r="1.7" fill="#FFFFFF" opacity="0.3"/><circle cx="423.8" cy="563.3" r="1.4" fill="#FFFFFF" opacity="0.2"/><circle cx="881.6" cy="370.0" r="3.3" fill="#FFFFFF" opacity="0.4"/><circle cx="1243.0" cy="786.1" r="2.5" fill="#FFFFFF" opacity="0.3"/><circle cx="1510.3" cy="203.0" r="3.1" fill="#FFFFFF" opacity="0.3"/><circle cx="798.5" cy="465.0" r="3.2" fill="#FFFFFF" opacity="0.5"/><circle cx="291.4" cy="518.9" r="1.6" fill="#FFFFFF" opacity="0.3"/><circle cx="744.4" cy="418.3" r="1.4" fill="#FFFFFF" opacity="0.4"/><circle cx="884.4" cy="18.4" r="3.3" fill="#FFFFFF" opacity="0.1"/><circle cx="656.5" cy="543.6" r="1.7" fill="#FFFFFF" opacity="0.4"/><circle cx="1267.4" cy="564.9" r="2.7" fill="#FFFFFF" opacity="0.2"/><circle cx="1176.1" cy="868.9" r="1.9" fill="#FFFFFF" opacity="0.2"/><circle cx="780.8" cy="754.5" r="2.0" fill="#FFFFFF" opacity="0.5"/><circle cx="553.6" cy="241.3" r="2.9" fill="#FFFFFF" opacity="0.4"/><circle cx="571.0" cy="623.2" r="3.0" fill="#FFFFFF" opacity="0.4"/><circle cx="592.4" cy="753.1" r="1.8" fill="#FFFFFF" opacity="0.3"/><circle cx="634.3" cy="391.7" r="2.1" fill="#FFFFFF" opacity="0.2"/><circle cx="1192.5" cy="805.5" r="2.9" fill="#FFFFFF" opacity="0.5"/><circle cx="1460.3" cy="448.3" r="1.8" fill="#FFFFFF" opacity="0.2"/><circle cx="1094.4" cy="210.0" r="2.2" fill="#FFFFFF" opacity="0.5"/><circle cx="676.4" cy="768.3" r="2.9" fill="#FFFFFF" opacity="0.4"/><circle cx="22.7" cy="226.5" r="1.3" fill="#FFFFFF" opacity="0.3"/><circle cx="690.4" cy="672.0" r="1.5" fill="#FFFFFF" opacity="0.2"/><circle cx="630.1" cy="340.3" r="3.1" fill="#FFFFFF" opacity="0.2"/><circle cx="135.6" cy="718.9" r="1.5" fill="#FFFFFF" opacity="0.2"/><rect x="-1.1" y="539.6" width="16.7" height="80.2" fill="#151E38" opacity="0.55"/><polygon points="-82.7,555.5 5.8,427.3 97.6,555.6" fill="#151E38" opacity="0.55"/><polygon points="-58.7,475.8 11.3,344.5 74.5,469.2" fill="#151E38" opacity="0.55"/><polygon points="-45.9,391.6 11.4,261.7 57.5,389.7" fill="#151E38" opacity="0.55"/><polygon points="-23.2,304.7 7.3,178.8 32.9,304.3" fill="#151E38" opacity="0.55"/><rect x="128.6" y="547.6" width="13.7" height="59.4" fill="#151E38" opacity="0.55"/><polygon points="59.2,560.4 134.2,464.5 209.7,562.3" fill="#151E38" opacity="0.55"/><polygon points="81.6,498.9 138.4,403.1 199.8,499.1" fill="#151E38" opacity="0.55"/><polygon points="89.3,434.8 135.6,341.8 177.4,433.8" fill="#151E38" opacity="0.55"/><polygon points="105.6,372.6 136.9,280.5 161.3,377.7" fill="#151E38" opacity="0.55"/><rect x="350.9" y="548.4" width="13.4" height="70.5" fill="#151E38" opacity="0.55"/><polygon points="281.2,561.4 356.5,449.7 434.5,563.6" fill="#151E38" opacity="0.55"/><polygon points="297.2,488.1 357.4,376.8 415.4,487.4" fill="#151E38" opacity="0.55"/><polygon points="310.5,415.0 357.9,304.0 401.9,418.4" fill="#151E38" opacity="0.55"/><polygon points="338.1,342.3 359.1,231.1 387.0,342.8" fill="#151E38" opacity="0.55"/><rect x="486.6" y="557.1" width="11.6" height="49.0" fill="#151E38" opacity="0.55"/><polygon points="427.1,567.9 494.6,488.4 557.4,569.1" fill="#151E38" opacity="0.55"/><polygon points="438.6,516.1 495.1,437.7 543.4,514.4" fill="#151E38" opacity="0.55"/><polygon points="455.1,468.0 493.2,387.1 529.2,467.7" fill="#151E38" opacity="0.55"/><polygon points="471.4,417.0 495.8,336.4 518.3,417.0" fill="#151E38" opacity="0.55"/><rect x="649.1" y="542.4" width="16.3" height="79.0" fill="#151E38" opacity="0.55"/><polygon points="565.1,560.2 652.3,431.7 751.5,560.9" fill="#151E38" opacity="0.55"/><polygon points="589.3,473.8 655.7,350.1 729.3,477.7" fill="#151E38" opacity="0.55"/><polygon points="611.5,394.5 654.4,268.4 702.0,395.6" fill="#151E38" opacity="0.55"/><polygon points="632.9,313.9 657.7,186.7 683.2,309.8" fill="#151E38" opacity="0.55"/><rect x="829.3" y="543.1" width="17.7" height="77.1" fill="#151E38" opacity="0.55"/><polygon points="739.8,557.8 835.7,435.2 941.8,556.5" fill="#151E38" opacity="0.55"/><polygon points="769.2,476.5 843.0,355.6 907.4,481.3" fill="#151E38" opacity="0.55"/><polygon points="778.5,402.1 835.2,276.0 895.0,400.8" fill="#151E38" opacity="0.55"/><polygon points="806.0,322.5 840.4,196.4 878.5,320.7" fill="#151E38" opacity="0.55"/><rect x="985.9" y="543.6" width="18.8" height="75.1" fill="#151E38" opacity="0.55"/><polygon points="883.6,559.7 996.3,438.5 1097.9,562.4" fill="#151E38" opacity="0.55"/><polygon points="916.6,478.3 991.7,360.9 1069.3,480.7" fill="#151E38" opacity="0.55"/><polygon points="934.9,405.0 999.8,283.4 1046.2,404.6" fill="#151E38" opacity="0.55"/><polygon points="951.9,328.1 991.4,205.8 1031.8,324.0" fill="#151E38" opacity="0.55"/><rect x="1144.8" y="536.6" width="17.7" height="72.3" fill="#151E38" opacity="0.55"/><polygon points="1054.7,550.7 1148.3,435.5 1251.7,551.2" fill="#151E38" opacity="0.55"/><polygon points="1076.9,479.5 1153.3,360.8 1231.2,473.6" fill="#151E38" opacity="0.55"/><polygon points="1093.2,405.1 1157.6,286.1 1215.8,405.4" fill="#151E38" opacity="0.55"/><polygon points="1122.3,325.5 1154.6,211.5 1179.4,327.4" fill="#151E38" opacity="0.55"/><rect x="1252.4" y="536.0" width="18.7" height="82.8" fill="#151E38" opacity="0.55"/><polygon points="1153.3,556.6 1267.7,420.1 1357.7,552.1" fill="#151E38" opacity="0.55"/><polygon points="1184.7,466.7 1262.3,334.6 1343.8,465.3" fill="#151E38" opacity="0.55"/><polygon points="1210.2,383.7 1260.6,249.1 1324.7,384.6" fill="#151E38" opacity="0.55"/><polygon points="1231.9,297.4 1260.7,163.6 1291.1,298.8" fill="#151E38" opacity="0.55"/><rect x="1467.6" y="550.0" width="13.0" height="65.9" fill="#151E38" opacity="0.55"/><polygon points="1406.7,565.5 1476.2,457.7 1550.0,562.4" fill="#151E38" opacity="0.55"/><polygon points="1419.2,497.8 1472.9,389.6 1535.5,496.7" fill="#151E38" opacity="0.55"/><polygon points="1429.0,427.1 1470.8,321.5 1516.4,427.1" fill="#151E38" opacity="0.55"/><polygon points="1451.9,358.3 1470.4,253.3 1503.1,359.0" fill="#151E38" opacity="0.55"/><rect x="1539.5" y="564.0" width="10.7" height="52.4" fill="#151E38" opacity="0.55"/><polygon points="1489.6,573.9 1545.1,490.7 1606.0,572.8" fill="#151E38" opacity="0.55"/><polygon points="1497.3,518.5 1546.7,436.6 1592.1,518.4" fill="#151E38" opacity="0.55"/><polygon points="1514.7,465.1 1545.1,382.5 1576.1,465.4" fill="#151E38" opacity="0.55"/><polygon points="1529.3,411.9 1547.3,328.4 1562.6,412.0" fill="#151E38" opacity="0.55"/><rect x="40.7" y="631.2" width="16.6" height="78.8" fill="#0D1428" opacity="0.9"/><polygon points="-48.5,645.5 45.0,520.9 136.8,649.9" fill="#0D1428" opacity="0.9"/><polygon points="-23.3,566.8 52.2,439.5 126.5,565.7" fill="#0D1428" opacity="0.9"/><polygon points="-9.9,482.6 52.4,358.1 100.9,480.5" fill="#0D1428" opacity="0.9"/><polygon points="16.4,405.9 48.4,276.7 77.3,406.1" fill="#0D1428" opacity="0.9"/><rect x="223.6" y="659.0" width="14.1" height="56.2" fill="#0D1428" opacity="0.9"/><polygon points="149.4,672.9 230.3,580.4 314.2,671.6" fill="#0D1428" opacity="0.9"/><polygon points="167.0,614.7 228.4,522.3 295.8,609.5" fill="#0D1428" opacity="0.9"/><polygon points="187.5,554.8 227.8,464.3 271.2,554.8" fill="#0D1428" opacity="0.9"/><polygon points="202.5,493.1 235.1,406.3 263.3,499.0" fill="#0D1428" opacity="0.9"/><rect x="509.8" y="652.2" width="14.4" height="59.7" fill="#0D1428" opacity="0.9"/><polygon points="437.5,666.4 520.5,568.6 595.4,663.8" fill="#0D1428" opacity="0.9"/><polygon points="452.3,603.9 518.6,506.9 584.2,602.2" fill="#0D1428" opacity="0.9"/><polygon points="472.5,539.1 515.0,445.2 559.6,540.0" fill="#0D1428" opacity="0.9"/><polygon points="485.2,479.6 512.5,383.5 546.7,481.0" fill="#0D1428" opacity="0.9"/><rect x="625.6" y="643.2" width="17.4" height="73.5" fill="#0D1428" opacity="0.9"/><polygon points="541.5,657.3 635.3,540.2 726.7,656.3" fill="#0D1428" opacity="0.9"/><polygon points="558.1,585.0 635.6,464.2 702.5,584.0" fill="#0D1428" opacity="0.9"/><polygon points="587.2,504.2 632.1,388.3 687.3,506.2" fill="#0D1428" opacity="0.9"/><polygon points="596.7,431.3 633.8,312.3 674.2,427.9" fill="#0D1428" opacity="0.9"/><rect x="862.2" y="626.1" width="21.7" height="98.5" fill="#0D1428" opacity="0.9"/><polygon points="752.2,645.7 878.1,488.2 989.0,642.6" fill="#0D1428" opacity="0.9"/><polygon points="786.1,548.5 873.3,386.4 967.9,540.9" fill="#0D1428" opacity="0.9"/><polygon points="809.1,437.6 868.1,284.5 946.6,444.7" fill="#0D1428" opacity="0.9"/><polygon points="826.1,344.3 870.0,182.7 918.6,343.3" fill="#0D1428" opacity="0.9"/><rect x="1130.0" y="625.5" width="22.7" height="100.1" fill="#0D1428" opacity="0.9"/><polygon points="1007.1,645.6 1147.8,485.4 1277.1,642.0" fill="#0D1428" opacity="0.9"/><polygon points="1037.2,538.2 1143.8,382.0 1240.4,540.0" fill="#0D1428" opacity="0.9"/><polygon points="1061.3,441.7 1139.1,278.6 1216.1,441.9" fill="#0D1428" opacity="0.9"/><polygon points="1090.2,338.0 1135.5,175.1 1191.0,336.4" fill="#0D1428" opacity="0.9"/><rect x="1342.1" y="632.9" width="21.3" height="88.7" fill="#0D1428" opacity="0.9"/><polygon points="1237.9,646.5 1346.8,508.8 1470.0,651.7" fill="#0D1428" opacity="0.9"/><polygon points="1254.7,563.2 1356.2,417.1 1445.8,561.6" fill="#0D1428" opacity="0.9"/><polygon points="1284.4,471.0 1358.4,325.4 1427.8,470.7" fill="#0D1428" opacity="0.9"/><polygon points="1319.1,377.9 1358.5,233.8 1402.5,376.0" fill="#0D1428" opacity="0.9"/><rect x="1489.5" y="660.2" width="12.8" height="53.9" fill="#0D1428" opacity="0.9"/><polygon points="1428.1,672.2 1494.5,584.7 1568.1,669.9" fill="#0D1428" opacity="0.9"/><polygon points="1440.4,612.8 1497.0,529.0 1555.6,614.3" fill="#0D1428" opacity="0.9"/><polygon points="1456.9,562.3 1499.9,473.3 1531.6,560.3" fill="#0D1428" opacity="0.9"/><polygon points="1469.5,502.7 1492.1,417.7 1525.7,505.3" fill="#0D1428" opacity="0.9"/><path d="M -60 786.2 Q 45.0 775.8 150.0 766.4 Q 255.0 758.9 360.0 763.3 Q 465.0 767.8 570.0 765.7 Q 675.0 787.4 780.0 770.3 Q 885.0 758.3 990.0 773.8 Q 1095.0 777.8 1200.0 780.6 Q 1305.0 758.7 1410.0 765.9 Q 1515.0 785.6 1620.0 771.7 Q 1725.0 786.9 1830.0 775.5 L 1660 940 L -60 940 Z" fill="#6E86A6" opacity="1.0"/><path d="M -60 850.7 Q 45.0 859.7 150.0 856.9 Q 255.0 849.3 360.0 849.7 Q 465.0 859.0 570.0 846.5 Q 675.0 844.5 780.0 854.9 Q 885.0 855.1 990.0 852.3 Q 1095.0 834.8 1200.0 851.5 Q 1305.0 838.3 1410.0 855.3 Q 1515.0 847.6 1620.0 843.6 Q 1725.0 844.9 1830.0 845.1 L 1660 940 L -60 940 Z" fill="#8FA6C2" opacity="1.0"/><g transform="translate(390.0,888.0) scale(1.1)"><ellipse cx="0" cy="2" rx="26" ry="7" fill="#070B16" opacity="0.55"/><path d="M -15 0 L -9 -22 L 9 -22 L 15 0 Z" fill="#0B1020"/><rect x="-4" y="-250" width="8" height="230" fill="#0B1020"/><rect x="-13" y="-232" width="26" height="5" rx="2" fill="#0B1020"/><path d="M -25 -250 L 25 -250 L 19 -308 L -19 -308 Z" fill="#0B1020"/><path d="M -20 -254 L 20 -254 L 15 -304 L -15 -304 Z" fill="#16203D"/><path d="M -30 -308 L 30 -308 L 0 -338 Z" fill="#0B1020"/><circle cx="0" cy="-342" r="5" fill="#0B1020"/><path d="M -12 0 q -3 -118.8 0 -237.5 l 24 0 q 3 118.8 0 237.5 Z" fill="#9FD6E8" opacity="0.45"/><path d="M -12 0 q -3 -118.8 0 -237.5" stroke="#FFFFFF" stroke-width="2" fill="none" opacity="0.5"/><path d="M 5.0 -210.0 l 13.4 -6.9" stroke="#9FD6E8" stroke-width="2.4" stroke-linecap="round" opacity="0.85"/><path d="M -5.0 -169.0 l -10.1 -12.1" stroke="#9FD6E8" stroke-width="2.4" stroke-linecap="round" opacity="0.85"/><path d="M -5.0 -111.2 l -13.6 -9.3" stroke="#9FD6E8" stroke-width="2.4" stroke-linecap="round" opacity="0.85"/><path d="M 5.0 -155.0 l 10.3 -10.1" stroke="#9FD6E8" stroke-width="2.4" stroke-linecap="round" opacity="0.85"/><path d="M -5.0 -163.2 l -11.1 -11.4" stroke="#9FD6E8" stroke-width="2.4" stroke-linecap="round" opacity="0.85"/><path d="M 5.0 -144.0 l 9.7 -5.4" stroke="#9FD6E8" stroke-width="2.4" stroke-linecap="round" opacity="0.85"/><path d="M 5.0 -4.3 l 16.2 -13.0" stroke="#9FD6E8" stroke-width="2.4" stroke-linecap="round" opacity="0.85"/><path d="M -5.0 -25.8 l -12.7 -10.7" stroke="#9FD6E8" stroke-width="2.4" stroke-linecap="round" opacity="0.85"/><path d="M 5.0 -232.6 l 11.6 -12.5" stroke="#9FD6E8" stroke-width="2.4" stroke-linecap="round" opacity="0.85"/><path d="M 5.0 -23.0 l 7.3 -7.0" stroke="#9FD6E8" stroke-width="2.4" stroke-linecap="round" opacity="0.85"/><path d="M 5.0 -31.3 l 13.5 -9.9" stroke="#9FD6E8" stroke-width="2.4" stroke-linecap="round" opacity="0.85"/><path d="M -5.0 -231.8 l -9.6 -6.0" stroke="#9FD6E8" stroke-width="2.4" stroke-linecap="round" opacity="0.85"/><path d="M -5.0 -50.0 l -10.8 -12.3" stroke="#9FD6E8" stroke-width="2.4" stroke-linecap="round" opacity="0.85"/><path d="M 5.0 -192.8 l 7.9 -8.9" stroke="#9FD6E8" stroke-width="2.4" stroke-linecap="round" opacity="0.85"/><path d="M -5.0 -89.4 l -13.2 -7.6" stroke="#9FD6E8" stroke-width="2.4" stroke-linecap="round" opacity="0.85"/><path d="M -5.0 -152.8 l -15.0 -12.1" stroke="#9FD6E8" stroke-width="2.4" stroke-linecap="round" opacity="0.85"/><path d="M -5.0 -141.8 l -9.0 -4.2" stroke="#9FD6E8" stroke-width="2.4" stroke-linecap="round" opacity="0.85"/><path d="M 5.0 -220.7 l 9.5 -8.9" stroke="#9FD6E8" stroke-width="2.4" stroke-linecap="round" opacity="0.85"/><path d="M -5.0 -35.4 l -10.6 -11.3" stroke="#9FD6E8" stroke-width="2.4" stroke-linecap="round" opacity="0.85"/></g><circle cx="815.0" cy="838.0" r="200.0" fill="url(#warm9)" opacity="0.9"/><ellipse cx="815" cy="856" rx="40" ry="14" fill="#5C8A4A"/><circle cx="815" cy="844" r="11" fill="#FFE6A8" filter="url(#soft9)"/><circle cx="815" cy="844" r="4" fill="#FFFFFF"/><g transform="translate(1010.0,886.0) scale(2.0)"><g transform="translate(0,0)"><ellipse cx="0" cy="1" rx="30" ry="7" fill="#050A16" opacity="0.35"/><path d="M -13 0 l 0 -44 l 10 0 l 0 44 Z" fill="#1C2C55"/><path d="M 3 0 l 0 -44 l 10 0 l 0 44 Z" fill="#1C2C55"/><path d="M -23 -30 l 5 12 l 6 -10 l 5 13 l 6 -11 l 5 12 l 6 -9 l 5 11 l 4 -13 l 0 -46 q -10 -18 -21 -18 q -11 0 -21 18 Z" transform="translate(-1,-6)" fill="#2B3F73"/><path d="M -8 -84 q 8 26 4 58" stroke="#1C2C55" stroke-width="4" fill="none" opacity="0.6"/><path d="M -13 -86 q 13 8 26 0 l 2 10 q -15 9 -30 0 Z" fill="#1C2C55"/><path d="M 10 -80 q 20 8 26 20" stroke="#D9B08C" stroke-width="8" fill="none" stroke-linecap="round"/><circle cx="38" cy="-58" r="6" fill="#D9B08C"/><path d="M -10 -80 q 16 12 22 26" stroke="#D9B08C" stroke-width="8" fill="none" stroke-linecap="round" opacity="0.9"/><circle cx="14" cy="-52" r="6" fill="#D9B08C"/>
<g transform="translate(0,-104) rotate(0.0)">
  <path d="M -17 -8 q -4 16 -2 22 q 19 4 38 0 q 2 -6 -2 -22 Z" fill="#CBD8E8"/>
  <circle cx="0" cy="0" r="14" fill="#F0C9A6" stroke="none" stroke-width="1.2"/>
  <path d="M -14 -3 q 1 -14 14 -14 q 13 0 14 14 q -4 -9 -13 -9 q -9 0 -11 6
           q -2 4 -4 3 Z" fill="#E9EFF6"/>
  <path d="M -1 -16 q 10 1 13 9 q -6 -5 -14 -4 Z" fill="#CBD8E8"/>
  <circle cx="-5.5" cy="1" r="2" fill="#3E4A63"/>
  <circle cx="5.5" cy="1" r="2" fill="#3E4A63"/>
  <path d="M -3 8 q 3 2.5 6 0" stroke="#3E4A63" stroke-width="1.5" fill="none"
        stroke-linecap="round" opacity="0.75"/>
  <path d="M -12 -8 q 12 -6 24 0" stroke="#9FD6E8" stroke-width="2.4" fill="none"
        stroke-linecap="round"/>
  <path d="M -6 -9 l -1 -4 M 0 -10.5 l 0 -5 M 6 -9 l 1 -4" stroke="#9FD6E8"
        stroke-width="2" stroke-linecap="round"/>
</g><polygon points="-22.0,-4.0 -15.7,-14.9 -6.8,-4.0" fill="#9FD6E8" opacity="0.6"/><polygon points="22.0,-4.0 15.8,-23.8 4.6,-4.0" fill="#9FD6E8" opacity="0.7"/><polygon points="-21.2,-12.3 -14.6,-30.5 -8.1,-12.3" fill="#9FD6E8" opacity="0.5"/><polygon points="21.2,-12.3 15.1,-29.3 7.8,-12.3" fill="#9FD6E8" opacity="0.7"/><polygon points="-20.4,-20.6 -12.4,-39.2 -5.4,-20.6" fill="#9FD6E8" opacity="0.7"/><polygon points="20.4,-20.6 11.8,-31.2 6.1,-20.6" fill="#9FD6E8" opacity="0.6"/><polygon points="-19.5,-28.8 -9.7,-48.7 -5.7,-28.8" fill="#9FD6E8" opacity="0.5"/><polygon points="19.5,-28.8 12.3,-48.1 7.7,-28.8" fill="#9FD6E8" opacity="0.5"/><polygon points="-18.7,-37.1 -13.6,-52.1 -6.8,-37.1" fill="#9FD6E8" opacity="0.5"/><polygon points="18.7,-37.1 12.6,-55.0 7.7,-37.1" fill="#9FD6E8" opacity="0.7"/><polygon points="-17.9,-45.4 -11.0,-65.2 -1.5,-45.4" fill="#9FD6E8" opacity="0.5"/><polygon points="17.9,-45.4 12.6,-63.3 4.8,-45.4" fill="#9FD6E8" opacity="0.7"/><polygon points="-17.1,-53.7 -8.9,-63.4 0.9,-53.7" fill="#9FD6E8" opacity="0.5"/><polygon points="17.1,-53.7 8.3,-68.1 1.1,-53.7" fill="#9FD6E8" opacity="0.5"/><polygon points="-16.3,-61.9 -8.2,-81.5 -3.9,-61.9" fill="#9FD6E8" opacity="0.8"/><polygon points="16.3,-61.9 7.1,-81.5 -0.6,-61.9" fill="#9FD6E8" opacity="0.5"/><polygon points="-15.5,-70.2 -6.0,-82.1 -3.4,-70.2" fill="#9FD6E8" opacity="0.7"/><polygon points="15.5,-70.2 6.6,-88.5 -1.8,-70.2" fill="#9FD6E8" opacity="0.8"/><polygon points="-14.6,-78.5 -5.4,-97.2 2.9,-78.5" fill="#9FD6E8" opacity="0.6"/><polygon points="14.6,-78.5 5.9,-88.1 -3.0,-78.5" fill="#9FD6E8" opacity="0.8"/><polygon points="-13.8,-86.8 -8.7,-104.0 -1.2,-86.8" fill="#9FD6E8" opacity="0.7"/><polygon points="13.8,-86.8 5.7,-101.5 0.5,-86.8" fill="#9FD6E8" opacity="0.7"/><polygon points="-13.0,-95.0 -4.1,-109.2 -1.5,-95.0" fill="#9FD6E8" opacity="0.8"/><polygon points="13.0,-95.0 6.1,-111.9 -2.1,-95.0" fill="#9FD6E8" opacity="0.6"/><path d="M -24 -2 q 24 -33.3 0 -95.0 q 24 33.3 24 95.0 l 0 2 Z" fill="#9FD6E8" opacity="0.28"/><ellipse cx="0" cy="-2" rx="30" ry="9" fill="#9FD6E8" opacity="0.6"/></g></g><g transform="translate(830.0,890.0) scale(1.9)"><g transform="translate(0,0)"><ellipse cx="4" cy="-2" rx="30" ry="7" fill="#050A16" opacity="0.35"/><path d="M -14 -3 l 34 0 l 0 -9 l -34 0 Z" fill="#402C21"/><path d="M -20 -10 q -4 -30 12 -36 l 20 0 q 12 8 10 36 Z" fill="#4E7A4A"/><rect x="-15" y="-24" width="10" height="8" rx="2" fill="#3A5D37"/><path d="M 2 -44 q 22 4 26 26" stroke="#3A5D37" stroke-width="9" fill="none" stroke-linecap="round"/><circle cx="29" cy="-17" r="5.5" fill="#7A4A2E"/><g transform="translate(0,-22)"><path d="M -13 -40 q 13 7 26 0 l 0 8 q -13 7 -26 0 Z" fill="#C0453B"/>
<g transform="translate(0,-56) rotate(10.0)">
  <path d="M -16 -6 q 0 -20 16 -20 q 16 0 16 20 q 0 6 -3 10 l -26 0 q -3 -4 -3 -10 Z" fill="#241A16"/>
  <circle cx="0" cy="0" r="14" fill="#D9A379"/>
  <path d="M -14 -3 q 2 -13 14 -13 q 12 0 14 13 q -6 -6 -14 -6 q -8 0 -14 6 Z" fill="#241A16"/>
  <ellipse cx="-15" cy="4" rx="5" ry="8" fill="#241A16"/>
  <ellipse cx="15" cy="4" rx="5" ry="8" fill="#241A16"/>
  <ellipse cx="-15" cy="12" rx="4" ry="6" fill="#241A16"/>
  <ellipse cx="15" cy="12" rx="4" ry="6" fill="#241A16"/>
  <circle cx="-5.5" cy="1" r="2" fill="#241A16"/>
  <circle cx="5.5" cy="1" r="2" fill="#241A16"/>
  <circle cx="-9" cy="5.5" r="1" fill="#B5764F" opacity="0.8"/>
  <circle cx="-6" cy="7" r="1" fill="#B5764F" opacity="0.8"/>
  <circle cx="8" cy="5.5" r="1" fill="#B5764F" opacity="0.8"/>
  <path d="M -3 7 q 3 3 6 0" stroke="#8A5638" stroke-width="1.6" fill="none" stroke-linecap="round"/>
  <path d="M -17 -8 q 17 -16 34 0 q 0 -19 -17 -19 q -17 0 -17 19 Z" fill="#B4552F"/>
  <rect x="-17" y="-9" width="34" height="6" rx="3" fill="#9A4526"/>
  <circle cx="0" cy="-29" r="5" fill="#B4552F"/>
</g></g></g></g><circle cx="784.7" cy="753.7" r="2.3" fill="#FFE6A8" opacity="0.6"/><circle cx="787.4" cy="738.7" r="1.8" fill="#FFE6A8" opacity="0.7"/><circle cx="828.5" cy="777.0" r="2.6" fill="#FFE6A8" opacity="0.4"/><circle cx="813.9" cy="784.1" r="2.0" fill="#FFE6A8" opacity="0.4"/><circle cx="792.7" cy="749.2" r="2.1" fill="#FFE6A8" opacity="0.6"/><circle cx="807.9" cy="732.6" r="3.0" fill="#FFE6A8" opacity="0.6"/><circle cx="792.9" cy="785.7" r="3.2" fill="#FFE6A8" opacity="0.4"/><circle cx="800.6" cy="738.2" r="2.6" fill="#FFE6A8" opacity="0.8"/><circle cx="853.2" cy="793.9" r="2.7" fill="#FFE6A8" opacity="0.6"/><circle cx="779.8" cy="798.2" r="3.3" fill="#FFE6A8" opacity="0.8"/><rect x="1509.7" y="900.0" width="20.7" height="100.0" fill="#070C18" opacity="1.0"/><polygon points="1409.4,924.2 1521.5,760.0 1628.3,917.8" fill="#070C18" opacity="1.0"/><polygon points="1435.6,816.9 1525.0,656.7 1602.6,820.3" fill="#070C18" opacity="1.0"/><polygon points="1459.9,715.8 1514.1,553.3 1584.1,709.8" fill="#070C18" opacity="1.0"/><polygon points="1479.2,605.4 1523.9,450.0 1566.2,613.9" fill="#070C18" opacity="1.0"/><rect x="70.3" y="916.4" width="19.3" height="92.0" fill="#070C18" opacity="1.0"/><polygon points="-22.0,937.3 74.7,787.6 191.6,937.1" fill="#070C18" opacity="1.0"/><polygon points="-9.7,835.7 79.9,692.5 158.8,836.4" fill="#070C18" opacity="1.0"/><polygon points="23.2,741.0 81.2,597.5 142.7,745.4" fill="#070C18" opacity="1.0"/><polygon points="45.8,653.6 85.2,502.4 121.7,648.1" fill="#070C18" opacity="1.0"/><rect width="1600" height="900" fill="url(#vig9)"/><rect width="1600" height="900" filter="url(#grain9)" opacity="0.09" style="mix-blend-mode:overlay"/></svg>