<svg xmlns="http://www.w3.org/2000/svg" viewBox="0 0 1600 900" width="1600" height="900" role="img"><defs>
  <linearGradient id="sky10" x1="0" y1="0" x2="0" y2="1">
    <stop offset="0%" stop-color="#1B2450"/><stop offset="42%" stop-color="#6B4E7A"/><stop offset="72%" stop-color="#D08A6A"/><stop offset="100%" stop-color="#F6C98A"/>
  </linearGradient>
  <radialGradient id="warm10">
    <stop offset="0%" stop-color="#F4B03C" stop-opacity="0.5"/>
    <stop offset="45%" stop-color="#F4B03C" stop-opacity="0.19"/>
    <stop offset="100%" stop-color="#F4B03C" stop-opacity="0"/>
  </radialGradient>
  <linearGradient id="glass10" x1="0" y1="0" x2="0" y2="1">
    <stop offset="0%" stop-color="#FFE6A8"/><stop offset="100%" stop-color="#F4B03C"/>
  </linearGradient>
  <radialGradient id="vig10">
    <stop offset="55%" stop-color="#000000" stop-opacity="0"/>
    <stop offset="100%" stop-color="#000814" stop-opacity="0.55"/>
  </radialGradient>
  <filter id="soft10" x="-120%" y="-120%" width="340%" height="340%">
    <feGaussianBlur stdDeviation="7"/>
  </filter>
  <filter id="grain10" x="0" y="0" width="100%" height="100%">
    <feTurbulence type="fractalNoise" baseFrequency="0.9" numOctaves="3" seed="10"/>
    <feColorMatrix type="saturate" values="0"/>
  </filter>
  
</defs><rect width="1600" height="900" fill="url(#sky10)"/><circle cx="1180" cy="330" r="120" fill="#FFE9B8" opacity="0.5" filter="url(#soft10)"/><circle cx="1180" cy="330" r="58" fill="#FFF3D2" opacity="0.95"/><path d="M -40 470 q 260 -120 520 -50 q 300 80 560 -70 q 300 -170 600 -20 l 0 620 l -1680 0 Z" fill="#5A4A76" opacity="0.9"/><path d="M -40 560 q 300 -110 620 -30 q 320 80 620 -60 q 200 -90 440 -10 l 0 520 l -1680 0 Z" fill="#3E3A63"/><g transform="translate(1108.0,486.0) scale(1.1)" fill="#2A2340"><path d="M -66 0 l 0 -30 l 11 0 l 0 30 Z"/><path d="M -48 0 l 0 -32 l 11 0 l 0 32 Z"/><path d="M 22 0 l 0 -34 l 10 0 l 0 34 Z"/><path d="M 38 0 l 0 -36 l 10 0 l 0 36 Z"/><path d="M -60 -28 q -6 -28 16 -34 l 62 -2 q 26 2 30 30 q -8 14 -34 14 l -50 0 q -18 0 -24 -8 Z"/><path d="M -62 -50 q -26 -6 -30 -30 q 10 8 22 6 q -6 -12 2 -22 q 2 14 14 20 Z"/><circle cx="46" cy="-62" r="30"/><circle cx="76.0" cy="-62.0" r="9"/><circle cx="72.0" cy="-47.0" r="9"/><circle cx="61.0" cy="-36.0" r="9"/><circle cx="46.0" cy="-32.0" r="9"/><circle cx="31.0" cy="-36.0" r="9"/><circle cx="20.0" cy="-47.0" r="9"/><circle cx="16.0" cy="-62.0" r="9"/><circle cx="20.0" cy="-77.0" r="9"/><circle cx="31.0" cy="-88.0" r="9"/><circle cx="46.0" cy="-92.0" r="9"/><circle cx="61.0" cy="-88.0" r="9"/><circle cx="72.0" cy="-77.0" r="9"/><circle cx="62" cy="-66" r="18"/><path d="M 74 -74 q 22 -4 26 6 q -12 0 -18 6 Z"/><path d="M 76 -60 q 20 6 24 -2 q -6 12 -22 10 Z"/><path d="M 52 -84 q 6 -14 16 -8 q -8 2 -10 10 Z"/></g><circle cx="1188" cy="418" r="180" fill="#FFD79A" opacity="0.2" filter="url(#soft10)"/><path d="M -40 640 L 1640 618 L 1640 940 L -40 940 Z" fill="#A9C4DC"/><path d="M -40 640 L 1640 618 L 1640 760 L -40 786 Z" fill="#EDF2F7" opacity="0.7"/><path d="M 70.8 724.5 L 200.2 709.7 L 252.3 735.2 L 349.8 741.7 L 414.8 755.1 L 535.6 729.3 L 658.2 735.6 L 749.6 735.0" stroke="#4A6E90" stroke-width="3.4" fill="none" opacity="0.8" stroke-linecap="round"/><path d="M 185.2 701.4 L 293.3 671.2 L 384.7 671.7 L 465.3 671.1 L 519.9 653.3 L 643.1 620.2 L 724.2 650.2 L 828.4 651.0" stroke="#4A6E90" stroke-width="3.2" fill="none" opacity="0.8" stroke-linecap="round"/><path d="M 250.3 787.5 L 333.3 784.0 L 422.1 796.1 L 535.3 777.6 L 651.1 758.1 L 706.7 788.6 L 771.1 799.9 L 855.5 775.3" stroke="#4A6E90" stroke-width="5.5" fill="none" opacity="0.8" stroke-linecap="round"/><path d="M 1024.2 770.0 L 1115.0 795.8 L 1234.7 784.4 L 1329.3 787.1 L 1412.9 797.3 L 1493.0 769.1 L 1567.8 785.7 L 1692.7 801.5" stroke="#4A6E90" stroke-width="5.1" fill="none" opacity="0.8" stroke-linecap="round"/><path d="M 509.8 781.6 L 570.5 781.8 L 634.8 788.6 L 702.6 759.2 L 811.3 772.1 L 923.6 742.0 L 1029.3 755.3 L 1121.4 781.4" stroke="#4A6E90" stroke-width="3.4" fill="none" opacity="0.8" stroke-linecap="round"/><path d="M 249.3 692.8 L 310.7 698.7 L 439.5 665.3 L 543.9 637.4 L 650.4 605.5 L 766.2 598.8 L 859.2 592.4 L 966.3 615.8" stroke="#4A6E90" stroke-width="5.7" fill="none" opacity="0.8" stroke-linecap="round"/><path d="M 949.1 721.9 L 1029.4 707.5 L 1136.0 718.5 L 1238.1 746.3 L 1338.7 770.8 L 1407.5 768.7 L 1490.7 744.9 L 1593.5 758.4" stroke="#4A6E90" stroke-width="4.5" fill="none" opacity="0.8" stroke-linecap="round"/><path d="M 167.5 734.9 L 291.0 713.5 L 353.7 739.8 L 430.2 758.2 L 531.5 737.8 L 602.7 760.7 L 676.1 757.3 L 732.5 754.8" stroke="#4A6E90" stroke-width="4.8" fill="none" opacity="0.8" stroke-linecap="round"/><path d="M 748.6 885.8 L 857.4 915.9 L 921.5 910.5 L 1003.6 926.4 L 1078.5 915.0 L 1173.8 901.6 L 1269.4 929.5 L 1383.0 912.5" stroke="#4A6E90" stroke-width="5.0" fill="none" opacity="0.8" stroke-linecap="round"/><rect x="3.1" y="682.1" width="6.3" height="27.2" fill="#2E3A5C" opacity="0.85"/><polygon points="-28.7,687.7 7.5,644.1 43.8,688.3" fill="#2E3A5C" opacity="0.85"/><polygon points="-20.5,660.8 7.4,616.0 34.4,658.9" fill="#2E3A5C" opacity="0.85"/><polygon points="-13.7,630.3 6.7,588.0 26.3,632.3" fill="#2E3A5C" opacity="0.85"/><polygon points="-5.2,602.9 6.1,559.9 15.7,604.7" fill="#2E3A5C" opacity="0.85"/><rect x="57.7" y="665.5" width="10.9" height="44.4" fill="#2E3A5C" opacity="0.85"/><polygon points="1.1,673.9 63.1,603.4 123.6,673.1" fill="#2E3A5C" opacity="0.85"/><polygon points="13.6,627.1 59.6,557.5 112.6,626.4" fill="#2E3A5C" opacity="0.85"/><polygon points="24.6,581.4 64.7,511.7 98.3,581.8" fill="#2E3A5C" opacity="0.85"/><polygon points="41.0,535.0 63.0,465.8 79.5,535.0" fill="#2E3A5C" opacity="0.85"/><rect x="167.3" y="673.0" width="7.6" height="32.7" fill="#2E3A5C" opacity="0.85"/><polygon points="126.7,678.8 170.6,627.1 210.8,680.8" fill="#2E3A5C" opacity="0.85"/><polygon points="137.1,646.0 172.9,593.3 205.7,646.6" fill="#2E3A5C" opacity="0.85"/><polygon points="148.0,611.5 173.1,559.5 197.9,610.6" fill="#2E3A5C" opacity="0.85"/><polygon points="155.1,578.2 169.6,525.6 182.5,577.3" fill="#2E3A5C" opacity="0.85"/><rect x="246.9" y="668.0" width="8.9" height="38.5" fill="#2E3A5C" opacity="0.85"/><polygon points="204.9,676.2 248.9,614.1 303.1,675.1" fill="#2E3A5C" opacity="0.85"/><polygon points="209.4,637.8 251.1,574.3 290.7,634.0" fill="#2E3A5C" opacity="0.85"/><polygon points="226.3,595.5 253.2,534.5 277.0,595.2" fill="#2E3A5C" opacity="0.85"/><polygon points="238.0,556.1 253.3,494.7 271.9,555.4" fill="#2E3A5C" opacity="0.85"/><rect x="344.3" y="673.9" width="7.4" height="32.7" fill="#2E3A5C" opacity="0.85"/><polygon points="304.2,681.3 347.9,628.1 386.1,681.5" fill="#2E3A5C" opacity="0.85"/><polygon points="317.4,645.1 345.8,594.3 377.8,645.3" fill="#2E3A5C" opacity="0.85"/><polygon points="321.7,613.1 347.0,560.5 370.4,611.4" fill="#2E3A5C" opacity="0.85"/><polygon points="330.8,579.9 347.3,526.7 361.9,578.9" fill="#2E3A5C" opacity="0.85"/><rect x="469.3" y="670.2" width="7.7" height="40.2" fill="#2E3A5C" opacity="0.85"/><polygon points="429.8,677.5 471.2,613.9 517.7,677.2" fill="#2E3A5C" opacity="0.85"/><polygon points="442.0,637.0 472.1,572.5 508.2,635.9" fill="#2E3A5C" opacity="0.85"/><polygon points="451.9,596.5 471.2,531.0 494.5,595.0" fill="#2E3A5C" opacity="0.85"/><polygon points="461.5,553.4 470.7,489.5 486.3,553.5" fill="#2E3A5C" opacity="0.85"/><rect x="570.6" y="662.3" width="11.5" height="49.0" fill="#2E3A5C" opacity="0.85"/><polygon points="507.8,673.4 575.2,593.6 641.7,672.3" fill="#2E3A5C" opacity="0.85"/><polygon points="529.9,620.8 573.3,543.0 628.7,622.8" fill="#2E3A5C" opacity="0.85"/><polygon points="540.0,569.1 579.2,492.3 612.5,568.8" fill="#2E3A5C" opacity="0.85"/><polygon points="556.1,522.3 574.2,441.7 601.3,522.4" fill="#2E3A5C" opacity="0.85"/><rect x="635.0" y="665.0" width="10.2" height="43.0" fill="#2E3A5C" opacity="0.85"/><polygon points="583.2,673.3 638.7,604.7 700.5,675.1" fill="#2E3A5C" opacity="0.85"/><polygon points="600.0,627.9 642.8,560.3 680.7,629.6" fill="#2E3A5C" opacity="0.85"/><polygon points="608.7,586.2 641.0,515.8 673.8,583.9" fill="#2E3A5C" opacity="0.85"/><polygon points="617.7,541.5 641.3,471.4 657.6,539.7" fill="#2E3A5C" opacity="0.85"/><rect x="762.8" y="664.4" width="8.2" height="42.1" fill="#2E3A5C" opacity="0.85"/><polygon points="720.9,674.1 768.5,605.4 815.6,671.2" fill="#2E3A5C" opacity="0.85"/><polygon points="727.9,628.4 764.8,561.9 800.2,628.3" fill="#2E3A5C" opacity="0.85"/><polygon points="740.9,585.1 767.2,518.4 794.1,587.0" fill="#2E3A5C" opacity="0.85"/><polygon points="748.2,543.6 764.8,474.8 785.9,542.1" fill="#2E3A5C" opacity="0.85"/><rect x="852.8" y="675.5" width="7.9" height="37.8" fill="#2E3A5C" opacity="0.85"/><polygon points="809.7,682.5 854.7,622.7 903.5,681.4" fill="#2E3A5C" opacity="0.85"/><polygon points="824.9,645.7 855.1,583.6 889.4,643.3" fill="#2E3A5C" opacity="0.85"/><polygon points="830.5,603.3 854.9,544.6 884.2,605.2" fill="#2E3A5C" opacity="0.85"/><polygon points="843.2,566.8 854.5,505.6 868.5,565.4" fill="#2E3A5C" opacity="0.85"/><rect x="941.1" y="682.0" width="6.6" height="27.8" fill="#2E3A5C" opacity="0.85"/><polygon points="906.8,686.9 945.1,643.0 981.7,688.9" fill="#2E3A5C" opacity="0.85"/><polygon points="916.1,658.1 945.8,614.2 971.9,659.8" fill="#2E3A5C" opacity="0.85"/><polygon points="921.8,630.9 945.9,585.5 967.8,629.1" fill="#2E3A5C" opacity="0.85"/><polygon points="932.0,601.5 944.4,556.7 958.2,600.0" fill="#2E3A5C" opacity="0.85"/><rect x="1057.6" y="670.1" width="7.7" height="37.5" fill="#2E3A5C" opacity="0.85"/><polygon points="1018.5,677.7 1061.1,617.5 1103.0,676.2" fill="#2E3A5C" opacity="0.85"/><polygon points="1025.4,637.8 1062.6,578.7 1097.7,637.1" fill="#2E3A5C" opacity="0.85"/><polygon points="1037.5,601.0 1063.1,539.9 1087.5,600.3" fill="#2E3A5C" opacity="0.85"/><polygon points="1050.1,561.2 1059.7,501.1 1077.8,562.0" fill="#2E3A5C" opacity="0.85"/><rect x="1151.2" y="673.5" width="8.3" height="34.6" fill="#2E3A5C" opacity="0.85"/><polygon points="1111.6,679.5 1155.4,625.0 1202.1,679.1" fill="#2E3A5C" opacity="0.85"/><polygon points="1117.6,645.5 1156.2,589.3 1187.7,646.5" fill="#2E3A5C" opacity="0.85"/><polygon points="1132.4,608.2 1154.9,553.6 1179.7,608.1" fill="#2E3A5C" opacity="0.85"/><polygon points="1140.7,571.5 1152.9,517.9 1170.4,572.8" fill="#2E3A5C" opacity="0.85"/><rect x="1198.4" y="675.7" width="7.1" height="35.4" fill="#2E3A5C" opacity="0.85"/><polygon points="1165.0,681.6 1200.5,626.1 1244.3,682.6" fill="#2E3A5C" opacity="0.85"/><polygon points="1172.2,645.6 1203.7,589.5 1233.0,645.4" fill="#2E3A5C" opacity="0.85"/><polygon points="1177.2,609.8 1203.5,552.9 1221.3,609.1" fill="#2E3A5C" opacity="0.85"/><polygon points="1190.8,571.8 1202.8,516.3 1216.3,574.0" fill="#2E3A5C" opacity="0.85"/><rect x="1305.0" y="674.2" width="8.1" height="37.8" fill="#2E3A5C" opacity="0.85"/><polygon points="1264.0,683.4 1307.8,621.3 1351.8,681.3" fill="#2E3A5C" opacity="0.85"/><polygon points="1276.4,642.0 1311.4,582.3 1346.4,642.2" fill="#2E3A5C" opacity="0.85"/><polygon points="1285.2,603.3 1311.3,543.2 1336.4,605.2" fill="#2E3A5C" opacity="0.85"/><polygon points="1294.6,565.3 1311.5,504.2 1325.9,565.1" fill="#2E3A5C" opacity="0.85"/><rect x="1406.9" y="681.4" width="7.4" height="29.9" fill="#2E3A5C" opacity="0.85"/><polygon points="1372.4,688.0 1412.9,639.5 1448.6,686.1" fill="#2E3A5C" opacity="0.85"/><polygon points="1380.7,655.9 1412.6,608.6 1440.1,655.2" fill="#2E3A5C" opacity="0.85"/><polygon points="1390.3,626.1 1413.0,577.7 1436.6,626.6" fill="#2E3A5C" opacity="0.85"/><polygon points="1399.1,593.1 1410.2,546.8 1423.9,594.5" fill="#2E3A5C" opacity="0.85"/><rect x="1484.3" y="674.9" width="5.9" height="31.3" fill="#2E3A5C" opacity="0.85"/><polygon points="1453.2,681.8 1488.6,631.2 1517.7,682.2" fill="#2E3A5C" opacity="0.85"/><polygon points="1464.2,648.9 1489.0,598.9 1513.2,650.0" fill="#2E3A5C" opacity="0.85"/><polygon points="1471.4,617.2 1486.4,566.6 1507.0,616.4" fill="#2E3A5C" opacity="0.85"/><polygon points="1474.9,583.6 1488.6,534.3 1496.4,585.0" fill="#2E3A5C" opacity="0.85"/><rect x="1642.1" y="679.2" width="6.4" height="27.8" fill="#2E3A5C" opacity="0.85"/><polygon points="1608.7,685.0 1645.7,640.2 1678.6,684.8" fill="#2E3A5C" opacity="0.85"/><polygon points="1617.5,656.0 1643.8,611.5 1673.4,656.6" fill="#2E3A5C" opacity="0.85"/><polygon points="1626.3,627.5 1644.8,582.7 1665.2,627.4" fill="#2E3A5C" opacity="0.85"/><polygon points="1631.6,598.5 1643.9,554.0 1659.6,597.6" fill="#2E3A5C" opacity="0.85"/><circle cx="300.0" cy="690.0" r="150.0" fill="url(#warm10)" opacity="0.8"/><g transform="translate(300.0,726.0) scale(0.4)"><ellipse cx="0" cy="2" rx="26" ry="7" fill="#070B16" opacity="0.55"/><path d="M -15 0 L -9 -22 L 9 -22 L 15 0 Z" fill="#0B1020"/><rect x="-4" y="-250" width="8" height="230" fill="#0B1020"/><rect x="-13" y="-232" width="26" height="5" rx="2" fill="#0B1020"/><path d="M -25 -250 L 25 -250 L 19 -308 L -19 -308 Z" fill="#0B1020"/><path d="M -20 -254 L 20 -254 L 15 -304 L -15 -304 Z" fill="url(#glass10)" opacity="1.0"/><ellipse cx="0" cy="-276" rx="7" ry="13" fill="#FFE6A8" opacity="1.0" filter="url(#soft10)"/><ellipse cx="0" cy="-278" rx="3" ry="7" fill="#FFFFFF" opacity="0.9"/><path d="M -30 -308 L 30 -308 L 0 -338 Z" fill="#0B1020"/><circle cx="0" cy="-342" r="5" fill="#0B1020"/></g><g opacity="0.95"><g transform="translate(430.0,730.0) scale(0.5)"><g transform="translate(0,0)"><ellipse cx="0" cy="1" rx="30" ry="7" fill="#050A16" opacity="0.35"/><path d="M -13 0 l 0 -44 l 10 0 l 0 44 Z" fill="#1C2C55"/><path d="M 3 0 l 0 -44 l 10 0 l 0 44 Z" fill="#1C2C55"/><path d="M -23 -30 l 5 12 l 6 -10 l 5 13 l 6 -11 l 5 12 l 6 -9 l 5 11 l 4 -13 l 0 -46 q -10 -18 -21 -18 q -11 0 -21 18 Z" transform="translate(-1,-6)" fill="#2B3F73"/><path d="M -8 -84 q 8 26 4 58" stroke="#1C2C55" stroke-width="4" fill="none" opacity="0.6"/><path d="M -13 -86 q 13 8 26 0 l 2 10 q -15 9 -30 0 Z" fill="#1C2C55"/><path d="M 10 -80 q 14 16 12 32" stroke="#D9B08C" stroke-width="8" fill="none" stroke-linecap="round"/><circle cx="22" cy="-46" r="6" fill="#D9B08C"/><path d="M -10 -80 q -14 16 -12 32" stroke="#D9B08C" stroke-width="8" fill="none" stroke-linecap="round"/><circle cx="-22" cy="-46" r="6" fill="#D9B08C"/>
<g transform="translate(0,-104) rotate(0.0)">
  <path d="M -17 -8 q -4 16 -2 22 q 19 4 38 0 q 2 -6 -2 -22 Z" fill="#CBD8E8"/>
  <circle cx="0" cy="0" r="14" fill="#F0C9A6" stroke="none" stroke-width="1.2"/>
  <path d="M -14 -3 q 1 -14 14 -14 q 13 0 14 14 q -4 -9 -13 -9 q -9 0 -11 6
           q -2 4 -4 3 Z" fill="#E9EFF6"/>
  <path d="M -1 -16 q 10 1 13 9 q -6 -5 -14 -4 Z" fill="#CBD8E8"/>
  <circle cx="-5.5" cy="1" r="2" fill="#3E4A63"/>
  <circle cx="5.5" cy="1" r="2" fill="#3E4A63"/>
  <path d="M -3 8 q 3 2.5 6 0" stroke="#3E4A63" stroke-width="1.5" fill="none"
        stroke-linecap="round" opacity="0.75"/>
  <path d="M -12 -8 q 12 -6 24 0" stroke="#9FD6E8" stroke-width="2.4" fill="none"
        stroke-linecap="round"/>
  <path d="M -6 -9 l -1 -4 M 0 -10.5 l 0 -5 M 6 -9 l 1 -4" stroke="#9FD6E8"
        stroke-width="2" stroke-linecap="round"/>
</g></g></g></g><g opacity="0.95"><g transform="translate(392.0,732.0) scale(0.4)"><g transform="translate(0,0)"><ellipse cx="0" cy="1" rx="24" ry="6" fill="#050A16" opacity="0.35"/><path d="M -10 0 l 0 -12 l 8 0 l 0 12 Z" fill="#402C21"/><path d="M 2 0 l 0 -12 l 8 0 l 0 12 Z" fill="#402C21"/><path d="M -17 -8 q -2 -38 5 -52 l 24 0 q 7 14 5 52 Z" fill="#4E7A4A"/><rect x="-13" y="-30" width="10" height="8" rx="2" fill="#3A5D37"/><rect x="4" y="-19" width="8" height="7" rx="2" fill="#3A5D37"/><path d="M 7 -54 q 10 12 8 26" stroke="#3A5D37" stroke-width="9" fill="none" stroke-linecap="round"/><circle cx="16" cy="-26" r="5.5" fill="#7A4A2E"/><path d="M -7 -54 q -10 12 -8 26" stroke="#3A5D37" stroke-width="9" fill="none" stroke-linecap="round"/><circle cx="-16" cy="-26" r="5.5" fill="#7A4A2E"/>
<path d="M -13 -62 q 13 7 26 0 l 0 8 q -13 7 -26 0 Z" fill="#C0453B"/>
<path d="M 9 -58 q 12 8 8 24 q -2 8 -9 6 q 4 -14 -5 -26 Z" fill="#A83A31"/>
<g transform="translate(0,-78) rotate(0.0)">
  <path d="M -16 -6 q 0 -20 16 -20 q 16 0 16 20 q 0 6 -3 10 l -26 0 q -3 -4 -3 -10 Z" fill="#241A16"/>
  <circle cx="0" cy="0" r="14" fill="#D9A379"/>
  <path d="M -14 -3 q 2 -13 14 -13 q 12 0 14 13 q -6 -6 -14 -6 q -8 0 -14 6 Z" fill="#241A16"/>
  <ellipse cx="-15" cy="4" rx="5" ry="8" fill="#241A16"/>
  <ellipse cx="15" cy="4" rx="5" ry="8" fill="#241A16"/>
  <ellipse cx="-15" cy="12" rx="4" ry="6" fill="#241A16"/>
  <ellipse cx="15" cy="12" rx="4" ry="6" fill="#241A16"/>
  <circle cx="-5.5" cy="1" r="2" fill="#241A16"/>
  <circle cx="5.5" cy="1" r="2" fill="#241A16"/>
  <circle cx="-9" cy="5.5" r="1" fill="#B5764F" opacity="0.8"/>
  <circle cx="-6" cy="7" r="1" fill="#B5764F" opacity="0.8"/>
  <circle cx="8" cy="5.5" r="1" fill="#B5764F" opacity="0.8"/>
  <path d="M -3 7 q 3 3 6 0" stroke="#8A5638" stroke-width="1.6" fill="none" stroke-linecap="round"/>
  <path d="M -17 -8 q 17 -16 34 0 q 0 -19 -17 -19 q -17 0 -17 19 Z" fill="#B4552F"/>
  <rect x="-17" y="-9" width="34" height="6" rx="3" fill="#9A4526"/>
  <circle cx="0" cy="-29" r="5" fill="#B4552F"/>
</g></g></g></g><rect x="81.0" y="871.2" width="18.0" height="86.0" fill="#1B2540" opacity="1.0"/><polygon points="-7.5,885.6 88.8,750.8 191.3,885.9" fill="#1B2540" opacity="1.0"/><polygon points="40.0,830.6 87.3,757.7 140.0,830.6" fill="#5A6C8E" opacity="0.75"/><polygon points="14.7,796.8 86.0,661.9 169.8,799.4" fill="#1B2540" opacity="1.0"/><polygon points="51.0,741.7 86.4,668.8 129.0,741.7" fill="#5A6C8E" opacity="0.75"/><polygon points="37.3,707.5 88.0,573.1 140.1,711.3" fill="#1B2540" opacity="1.0"/><polygon points="62.0,652.9 91.0,579.9 118.0,652.9" fill="#5A6C8E" opacity="0.75"/><polygon points="63.0,619.8 85.6,484.2 131.2,621.5" fill="#1B2540" opacity="1.0"/><polygon points="73.0,564.0 91.4,491.1 107.0,564.0" fill="#5A6C8E" opacity="0.75"/><rect x="1521.5" y="886.0" width="17.1" height="80.0" fill="#1B2540" opacity="1.0"/><polygon points="1433.7,905.1 1525.4,774.0 1618.0,902.0" fill="#1B2540" opacity="1.0"/><polygon points="1482.5,848.2 1526.3,780.4 1577.5,848.2" fill="#5A6C8E" opacity="0.75"/><polygon points="1460.9,818.2 1535.3,691.3 1599.5,822.9" fill="#1B2540" opacity="1.0"/><polygon points="1493.0,765.6 1526.8,697.7 1567.0,765.6" fill="#5A6C8E" opacity="0.75"/><polygon points="1478.0,733.6 1528.1,608.7 1576.1,740.3" fill="#1B2540" opacity="1.0"/><polygon points="1503.4,682.9 1530.4,615.1 1556.6,682.9" fill="#5A6C8E" opacity="0.75"/><polygon points="1499.3,657.5 1530.7,526.0 1569.5,656.1" fill="#1B2540" opacity="1.0"/><polygon points="1513.8,600.2 1531.3,532.4 1546.2,600.2" fill="#5A6C8E" opacity="0.75"/><rect width="1600" height="900" fill="url(#vig10)"/><rect width="1600" height="900" filter="url(#grain10)" opacity="0.07" style="mix-blend-mode:overlay"/></svg>